<svg width="168" height="52" viewBox="0 0 168 52" fill="none" xmlns="http://www.w3.org/2000/svg">
<path fill-rule="evenodd" clip-rule="evenodd" d="M8.76814 10.9206L6.49309 13.8569C7.87732 15.2236 9.55748 16.4138 11.4663 17.3674L13.9661 14.8121C14.9274 13.8296 16.349 13.4517 17.6711 13.8273L20.5247 14.6381C22.1374 15.0963 23.25 16.5694 23.25 18.246V20.6252C23.25 21.0393 22.9142 21.3752 22.5 21.3752C18.4125 21.3752 14.5811 20.4946 11.3062 18.9564C8.44537 17.6128 6.00064 15.7631 4.18474 13.551C2.02182 10.916 0.75 7.76333 0.75 4.36354C0.75 4.04801 0.947498 3.7662 1.2441 3.65855L3.46965 2.85071C5.29249 2.18905 7.31891 3.02652 8.1432 4.78189L9.1983 7.02866C9.7971 8.30381 9.63097 9.80708 8.76814 10.9206Z" fill="#003366"/>
<path d="M49.4915 39.9091C49.4915 38.6562 49.6539 37.5045 49.9787 36.4538C50.3068 35.3999 50.7741 34.4304 51.3807 33.5455H52.4148C52.1761 33.8736 51.9524 34.2779 51.7436 34.7585C51.5381 35.2358 51.3575 35.7611 51.2017 36.3345C51.0459 36.9046 50.9233 37.4946 50.8338 38.1044C50.7476 38.7143 50.7045 39.3158 50.7045 39.9091C50.7045 40.6979 50.7808 41.4983 50.9332 42.3104C51.0857 43.1224 51.2912 43.8764 51.5497 44.5724C51.8082 45.2685 52.0966 45.8352 52.4148 46.2727H51.3807C50.7741 45.3878 50.3068 44.42 49.9787 43.3693C49.6539 42.3153 49.4915 41.1619 49.4915 39.9091ZM54.0876 42.9119V41.8977L58.562 34.8182H59.2978V36.3892H58.8007L55.42 41.7386V41.8182H61.4456V42.9119H54.0876ZM58.8802 45V42.6037V42.1314V34.8182H60.0535V45H58.8802ZM66.949 45.1392C66.2928 45.1392 65.7078 45.0265 65.194 44.8011C64.6836 44.5758 64.2776 44.2625 63.976 43.8615C63.6777 43.4571 63.5153 42.9882 63.4888 42.4545H64.7416C64.7681 42.7827 64.8808 43.0661 65.0797 43.3047C65.2786 43.54 65.5387 43.7223 65.8602 43.8516C66.1817 43.9808 66.538 44.0455 66.9291 44.0455C67.3666 44.0455 67.7544 43.9692 68.0925 43.8168C68.4305 43.6643 68.6957 43.4522 68.8879 43.1804C69.0802 42.9086 69.1763 42.5938 69.1763 42.2358C69.1763 41.8613 69.0835 41.5315 68.8979 41.2464C68.7123 40.9581 68.4405 40.7327 68.0825 40.5703C67.7246 40.4079 67.2871 40.3267 66.77 40.3267H65.9547V39.233H66.77C67.1744 39.233 67.529 39.16 67.8339 39.0142C68.1422 38.8684 68.3825 38.6629 68.5548 38.3977C68.7305 38.1326 68.8183 37.821 68.8183 37.4631C68.8183 37.1184 68.7421 36.8184 68.5896 36.5632C68.4372 36.308 68.2217 36.1091 67.9433 35.9666C67.6682 35.8241 67.3434 35.7528 66.9689 35.7528C66.6176 35.7528 66.2861 35.8175 65.9746 35.9467C65.6663 36.0727 65.4144 36.2566 65.2189 36.4986C65.0233 36.7372 64.9173 37.0256 64.9007 37.3636H63.7075C63.7274 36.83 63.8882 36.3627 64.1898 35.9616C64.4914 35.5573 64.8858 35.2424 65.373 35.017C65.8635 34.7917 66.4021 34.679 66.9888 34.679C67.6185 34.679 68.1588 34.8066 68.6095 35.0618C69.0603 35.3137 69.4066 35.6468 69.6486 36.0611C69.8905 36.4754 70.0115 36.9228 70.0115 37.4034C70.0115 37.9768 69.8607 38.4657 69.5591 38.87C69.2608 39.2744 68.8548 39.5545 68.3411 39.7102V39.7898C68.984 39.8958 69.4862 40.1693 69.8474 40.6101C70.2087 41.0476 70.3893 41.5895 70.3893 42.2358C70.3893 42.7893 70.2385 43.2865 69.9369 43.7273C69.6386 44.1648 69.231 44.5095 68.7139 44.7614C68.1969 45.0133 67.6086 45.1392 66.949 45.1392ZM72.6227 45V44.1051L75.9835 40.4261C76.3779 39.9953 76.7027 39.6207 76.958 39.3026C77.2132 38.9811 77.4021 38.6795 77.5247 38.3977C77.6507 38.1127 77.7136 37.8144 77.7136 37.5028C77.7136 37.1449 77.6275 36.835 77.4551 36.5732C77.2861 36.3113 77.0541 36.1091 76.7591 35.9666C76.4641 35.8241 76.1327 35.7528 75.7648 35.7528C75.3737 35.7528 75.0323 35.834 74.7406 35.9964C74.4523 36.1555 74.2286 36.3793 74.0695 36.6676C73.9137 36.956 73.8358 37.294 73.8358 37.6818H72.6625C72.6625 37.0852 72.8 36.5616 73.0751 36.1108C73.3502 35.66 73.7248 35.3087 74.1987 35.0568C74.676 34.8049 75.2113 34.679 75.8045 34.679C76.4011 34.679 76.9298 34.8049 77.3905 35.0568C77.8512 35.3087 78.2125 35.6484 78.4743 36.076C78.7361 36.5036 78.867 36.9792 78.867 37.5028C78.867 37.8774 78.7991 38.2436 78.6632 38.6016C78.5306 38.9562 78.2986 39.3523 77.9672 39.7898C77.6391 40.224 77.1833 40.7543 76.6 41.3807L74.3131 43.8267V43.9062H79.046V45H72.6227ZM83.8249 39.9091C83.8249 41.1619 83.6608 42.3153 83.3327 43.3693C83.0079 44.42 82.5422 45.3878 81.9357 46.2727H80.9016C81.1402 45.9446 81.3623 45.5402 81.5678 45.0597C81.7766 44.5824 81.9589 44.0587 82.1146 43.4886C82.2704 42.9152 82.3914 42.3236 82.4776 41.7138C82.567 41.1006 82.6118 40.4991 82.6118 39.9091C82.6118 39.1203 82.5356 38.3198 82.3831 37.5078C82.2306 36.6958 82.0251 35.9418 81.7666 35.2457C81.5081 34.5497 81.2197 33.983 80.9016 33.5455H81.9357C82.5422 34.4304 83.0079 35.3999 83.3327 36.4538C83.6608 37.5045 83.8249 38.6562 83.8249 39.9091ZM94.2886 34.8182V45H93.0556V36.1108H92.996L90.5102 37.7614V36.5085L93.0556 34.8182H94.2886ZM97.4169 45V44.1051L100.778 40.4261C101.172 39.9953 101.497 39.6207 101.752 39.3026C102.007 38.9811 102.196 38.6795 102.319 38.3977C102.445 38.1127 102.508 37.8144 102.508 37.5028C102.508 37.1449 102.422 36.835 102.249 36.5732C102.08 36.3113 101.848 36.1091 101.553 35.9666C101.258 35.8241 100.927 35.7528 100.559 35.7528C100.168 35.7528 99.8264 35.834 99.5348 35.9964C99.2464 36.1555 99.0227 36.3793 98.8636 36.6676C98.7078 36.956 98.6299 37.294 98.6299 37.6818H97.4566C97.4566 37.0852 97.5942 36.5616 97.8693 36.1108C98.1444 35.66 98.5189 35.3087 98.9929 35.0568C99.4701 34.8049 100.005 34.679 100.599 34.679C101.195 34.679 101.724 34.8049 102.185 35.0568C102.645 35.3087 103.007 35.6484 103.268 36.076C103.53 36.5036 103.661 36.9792 103.661 37.5028C103.661 37.8774 103.593 38.2436 103.457 38.6016C103.325 38.9562 103.093 39.3523 102.761 39.7898C102.433 40.224 101.977 40.7543 101.394 41.3807L99.1072 43.8267V43.9062H103.84V45H97.4169ZM109.534 45.1392C108.878 45.1392 108.293 45.0265 107.779 44.8011C107.268 44.5758 106.862 44.2625 106.561 43.8615C106.262 43.4571 106.1 42.9882 106.074 42.4545H107.326C107.353 42.7827 107.466 43.0661 107.664 43.3047C107.863 43.54 108.123 43.7223 108.445 43.8516C108.766 43.9808 109.123 44.0455 109.514 44.0455C109.951 44.0455 110.339 43.9692 110.677 43.8168C111.015 43.6643 111.28 43.4522 111.473 43.1804C111.665 42.9086 111.761 42.5938 111.761 42.2358C111.761 41.8613 111.668 41.5315 111.483 41.2464C111.297 40.9581 111.025 40.7327 110.667 40.5703C110.309 40.4079 109.872 40.3267 109.355 40.3267H108.539V39.233H109.355C109.759 39.233 110.114 39.16 110.419 39.0142C110.727 38.8684 110.967 38.6629 111.14 38.3977C111.315 38.1326 111.403 37.821 111.403 37.4631C111.403 37.1184 111.327 36.8184 111.174 36.5632C111.022 36.308 110.806 36.1091 110.528 35.9666C110.253 35.8241 109.928 35.7528 109.554 35.7528C109.202 35.7528 108.871 35.8175 108.559 35.9467C108.251 36.0727 107.999 36.2566 107.804 36.4986C107.608 36.7372 107.502 37.0256 107.485 37.3636H106.292C106.312 36.83 106.473 36.3627 106.775 35.9616C107.076 35.5573 107.471 35.2424 107.958 35.017C108.448 34.7917 108.987 34.679 109.574 34.679C110.203 34.679 110.744 34.8066 111.194 35.0618C111.645 35.3137 111.991 35.6468 112.233 36.0611C112.475 36.4754 112.596 36.9228 112.596 37.4034C112.596 37.9768 112.445 38.4657 112.144 38.87C111.846 39.2744 111.44 39.5545 110.926 39.7102V39.7898C111.569 39.8958 112.071 40.1693 112.432 40.6101C112.793 41.0476 112.974 41.5895 112.974 42.2358C112.974 42.7893 112.823 43.2865 112.522 43.7273C112.223 44.1648 111.816 44.5095 111.299 44.7614C110.782 45.0133 110.193 45.1392 109.534 45.1392ZM114.969 42.9119V41.8977L119.443 34.8182H120.179V36.3892H119.682L116.301 41.7386V41.8182H122.327V42.9119H114.969ZM119.761 45V42.6037V42.1314V34.8182H120.935V45H119.761ZM124.151 42.9119V41.8977L128.626 34.8182H129.362V36.3892H128.864L125.484 41.7386V41.8182H131.509V42.9119H124.151ZM128.944 45V42.6037V42.1314V34.8182H130.117V45H128.944ZM136.953 45.1392C136.535 45.1326 136.118 45.053 135.7 44.9006C135.283 44.7481 134.901 44.4912 134.557 44.13C134.212 43.7654 133.935 43.2732 133.726 42.6534C133.518 42.0303 133.413 41.2481 133.413 40.3068C133.413 39.4053 133.498 38.6065 133.667 37.9105C133.836 37.2112 134.081 36.6229 134.403 36.1456C134.724 35.665 135.112 35.3004 135.566 35.0518C136.023 34.8033 136.539 34.679 137.112 34.679C137.682 34.679 138.189 34.7933 138.633 35.022C139.081 35.2474 139.445 35.5623 139.727 35.9666C140.009 36.371 140.191 36.8366 140.274 37.3636H139.061C138.948 36.9062 138.73 36.5268 138.405 36.2251C138.08 35.9235 137.649 35.7727 137.112 35.7727C136.323 35.7727 135.702 36.1158 135.248 36.8018C134.797 37.4879 134.57 38.4508 134.567 39.6903H134.646C134.832 39.4086 135.052 39.1683 135.307 38.9695C135.566 38.7673 135.851 38.6115 136.163 38.5021C136.474 38.3928 136.804 38.3381 137.152 38.3381C137.735 38.3381 138.269 38.4839 138.753 38.7756C139.237 39.0639 139.624 39.4633 139.916 39.9737C140.208 40.4808 140.354 41.0625 140.354 41.7188C140.354 42.3485 140.213 42.9252 139.931 43.4489C139.649 43.9692 139.253 44.3835 138.743 44.6918C138.236 44.9967 137.639 45.1458 136.953 45.1392ZM136.953 44.0455C137.371 44.0455 137.745 43.9411 138.077 43.7322C138.411 43.5234 138.675 43.2434 138.867 42.892C139.063 42.5407 139.16 42.1496 139.16 41.7188C139.16 41.2978 139.066 40.915 138.877 40.5703C138.691 40.2223 138.435 39.9455 138.106 39.7401C137.782 39.5346 137.41 39.4318 136.993 39.4318C136.678 39.4318 136.385 39.4948 136.113 39.6207C135.841 39.7434 135.602 39.9124 135.397 40.1278C135.195 40.3433 135.036 40.5902 134.92 40.8686C134.804 41.1437 134.746 41.4337 134.746 41.7386C134.746 42.143 134.84 42.5208 135.029 42.8722C135.221 43.2235 135.483 43.5069 135.815 43.7223C136.149 43.9377 136.529 44.0455 136.953 44.0455ZM145.83 45.1392C145.081 45.1392 144.443 44.9354 143.916 44.5277C143.389 44.1167 142.986 43.5218 142.708 42.7429C142.429 41.9607 142.29 41.0161 142.29 39.9091C142.29 38.8087 142.429 37.8691 142.708 37.0902C142.989 36.308 143.394 35.7114 143.921 35.3004C144.451 34.8861 145.087 34.679 145.83 34.679C146.572 34.679 147.207 34.8861 147.734 35.3004C148.264 35.7114 148.668 36.308 148.947 37.0902C149.229 37.8691 149.369 38.8087 149.369 39.9091C149.369 41.0161 149.23 41.9607 148.952 42.7429C148.673 43.5218 148.271 44.1167 147.744 44.5277C147.217 44.9354 146.579 45.1392 145.83 45.1392ZM145.83 44.0455C146.572 44.0455 147.149 43.6875 147.56 42.9716C147.971 42.2557 148.176 41.2348 148.176 39.9091C148.176 39.0275 148.082 38.2768 147.893 37.657C147.707 37.0372 147.439 36.5649 147.088 36.2401C146.739 35.9152 146.32 35.7528 145.83 35.7528C145.094 35.7528 144.519 36.1158 144.105 36.8416C143.69 37.5642 143.483 38.5866 143.483 39.9091C143.483 40.7907 143.576 41.5398 143.762 42.1562C143.947 42.7727 144.214 43.2417 144.562 43.5632C144.913 43.8847 145.336 44.0455 145.83 44.0455ZM154.7 34.679C155.118 34.6823 155.535 34.7618 155.953 34.9176C156.371 35.0734 156.752 35.3319 157.096 35.6932C157.441 36.0511 157.718 36.54 157.927 37.1598C158.136 37.7796 158.24 38.5568 158.24 39.4915C158.24 40.3963 158.154 41.2 157.981 41.9027C157.812 42.602 157.567 43.192 157.246 43.6726C156.927 44.1532 156.54 44.5178 156.082 44.7663C155.628 45.0149 155.114 45.1392 154.541 45.1392C153.971 45.1392 153.462 45.0265 153.015 44.8011C152.571 44.5724 152.206 44.2559 151.921 43.8516C151.639 43.4439 151.459 42.9716 151.379 42.4347H152.592C152.702 42.902 152.919 43.2881 153.243 43.593C153.572 43.8946 154.004 44.0455 154.541 44.0455C155.327 44.0455 155.946 43.7024 156.4 43.0163C156.858 42.3303 157.087 41.3608 157.087 40.108H157.007C156.821 40.3864 156.601 40.6267 156.346 40.8288C156.091 41.031 155.807 41.1868 155.496 41.2962C155.184 41.4055 154.853 41.4602 154.501 41.4602C153.918 41.4602 153.383 41.3161 152.895 41.0277C152.412 40.736 152.024 40.3366 151.732 39.8295C151.444 39.3191 151.3 38.7358 151.3 38.0795C151.3 37.4564 151.439 36.8864 151.717 36.3693C151.999 35.849 152.393 35.4347 152.9 35.1264C153.411 34.8182 154.011 34.669 154.7 34.679ZM154.7 35.7727C154.283 35.7727 153.906 35.8771 153.572 36.0859C153.24 36.2914 152.977 36.5698 152.781 36.9212C152.589 37.2692 152.493 37.6553 152.493 38.0795C152.493 38.5038 152.586 38.8899 152.771 39.2379C152.96 39.5826 153.217 39.8577 153.542 40.0632C153.87 40.2654 154.243 40.3665 154.66 40.3665C154.975 40.3665 155.269 40.3052 155.54 40.1825C155.812 40.0566 156.049 39.8859 156.251 39.6705C156.457 39.4517 156.618 39.2048 156.734 38.9297C156.85 38.6513 156.908 38.3613 156.908 38.0597C156.908 37.6619 156.811 37.2891 156.619 36.9411C156.43 36.593 156.168 36.3113 155.834 36.0959C155.502 35.8804 155.124 35.7727 154.7 35.7727ZM163.656 45.1392C162.974 45.1392 162.37 45.0182 161.847 44.7763C161.326 44.531 160.92 44.1946 160.629 43.767C160.337 43.3362 160.193 42.8456 160.196 42.2955C160.193 41.8646 160.277 41.4669 160.45 41.1023C160.622 40.7344 160.857 40.4278 161.156 40.1825C161.457 39.9339 161.794 39.7765 162.165 39.7102V39.6506C161.678 39.5246 161.29 39.2512 161.002 38.8303C160.713 38.406 160.571 37.9238 160.574 37.3835C160.571 36.8665 160.702 36.4041 160.967 35.9964C161.232 35.5888 161.596 35.2673 162.06 35.032C162.528 34.7966 163.06 34.679 163.656 34.679C164.246 34.679 164.773 34.7966 165.237 35.032C165.701 35.2673 166.066 35.5888 166.331 35.9964C166.6 36.4041 166.735 36.8665 166.739 37.3835C166.735 37.9238 166.588 38.406 166.296 38.8303C166.008 39.2512 165.625 39.5246 165.148 39.6506V39.7102C165.516 39.7765 165.847 39.9339 166.142 40.1825C166.437 40.4278 166.672 40.7344 166.848 41.1023C167.024 41.4669 167.113 41.8646 167.117 42.2955C167.113 42.8456 166.964 43.3362 166.669 43.767C166.377 44.1946 165.971 44.531 165.451 44.7763C164.934 45.0182 164.336 45.1392 163.656 45.1392ZM163.656 44.0455C164.117 44.0455 164.515 43.9709 164.85 43.8217C165.184 43.6726 165.443 43.4621 165.625 43.1903C165.807 42.9186 165.9 42.6004 165.904 42.2358C165.9 41.8513 165.801 41.5116 165.605 41.2166C165.41 40.9216 165.143 40.6896 164.805 40.5206C164.47 40.3516 164.087 40.267 163.656 40.267C163.222 40.267 162.834 40.3516 162.493 40.5206C162.155 40.6896 161.888 40.9216 161.693 41.2166C161.5 41.5116 161.406 41.8513 161.409 42.2358C161.406 42.6004 161.494 42.9186 161.673 43.1903C161.855 43.4621 162.115 43.6726 162.453 43.8217C162.791 43.9709 163.192 44.0455 163.656 44.0455ZM163.656 39.2131C164.021 39.2131 164.344 39.1402 164.626 38.9943C164.911 38.8485 165.135 38.6446 165.297 38.3828C165.459 38.121 165.542 37.8144 165.546 37.4631C165.542 37.1184 165.461 36.8184 165.302 36.5632C165.143 36.3047 164.922 36.1058 164.641 35.9666C164.359 35.8241 164.031 35.7528 163.656 35.7528C163.275 35.7528 162.942 35.8241 162.657 35.9666C162.372 36.1058 162.152 36.3047 161.996 36.5632C161.84 36.8184 161.764 37.1184 161.767 37.4631C161.764 37.8144 161.842 38.121 162.001 38.3828C162.163 38.6446 162.387 38.8485 162.672 38.9943C162.957 39.1402 163.285 39.2131 163.656 39.2131Z" fill="#565656"/>
<path d="M49.1477 18V6.36364H53.5114C54.4053 6.36364 55.1553 6.5303 55.7614 6.86364C56.3712 7.19697 56.8314 7.6553 57.142 8.23864C57.4564 8.81818 57.6136 9.47727 57.6136 10.2159C57.6136 10.9621 57.4564 11.625 57.142 12.2045C56.8277 12.7841 56.3636 13.2405 55.75 13.5739C55.1364 13.9034 54.3807 14.0682 53.483 14.0682H50.5909V12.3352H53.1989C53.7216 12.3352 54.1496 12.2443 54.483 12.0625C54.8163 11.8807 55.0625 11.6307 55.2216 11.3125C55.3845 10.9943 55.4659 10.6288 55.4659 10.2159C55.4659 9.80303 55.3845 9.43939 55.2216 9.125C55.0625 8.81061 54.8144 8.56629 54.4773 8.39205C54.1439 8.21402 53.714 8.125 53.1875 8.125H51.2557V18H49.1477ZM61.6105 12.8864V18H59.5537V6.36364H61.5651V10.7557H61.6673C61.8719 10.2633 62.1882 9.875 62.6162 9.59091C63.048 9.30303 63.5973 9.15909 64.2639 9.15909C64.87 9.15909 65.3984 9.28598 65.8491 9.53977C66.2999 9.79356 66.6484 10.1648 66.8946 10.6534C67.1446 11.142 67.2696 11.7386 67.2696 12.4432V18H65.2128V12.7614C65.2128 12.1742 65.0613 11.7178 64.7582 11.392C64.459 11.0625 64.0385 10.8977 63.4969 10.8977C63.1332 10.8977 62.8075 10.9773 62.5196 11.1364C62.2355 11.2917 62.012 11.517 61.8491 11.8125C61.6901 12.108 61.6105 12.4659 61.6105 12.8864ZM73.373 18.1705C72.5207 18.1705 71.7821 17.983 71.1571 17.608C70.5321 17.233 70.0473 16.7083 69.7026 16.0341C69.3616 15.3598 69.1912 14.572 69.1912 13.6705C69.1912 12.7689 69.3616 11.9792 69.7026 11.3011C70.0473 10.6231 70.5321 10.0966 71.1571 9.72159C71.7821 9.34659 72.5207 9.15909 73.373 9.15909C74.2253 9.15909 74.9639 9.34659 75.5889 9.72159C76.2139 10.0966 76.6969 10.6231 77.0378 11.3011C77.3825 11.9792 77.5548 12.7689 77.5548 13.6705C77.5548 14.572 77.3825 15.3598 77.0378 16.0341C76.6969 16.7083 76.2139 17.233 75.5889 17.608C74.9639 17.983 74.2253 18.1705 73.373 18.1705ZM73.3844 16.5227C73.8465 16.5227 74.2329 16.3958 74.5435 16.142C74.8541 15.8845 75.0851 15.5398 75.2366 15.108C75.392 14.6761 75.4696 14.1951 75.4696 13.6648C75.4696 13.1307 75.392 12.6477 75.2366 12.2159C75.0851 11.7803 74.8541 11.4337 74.5435 11.1761C74.2329 10.9186 73.8465 10.7898 73.3844 10.7898C72.9109 10.7898 72.517 10.9186 72.2026 11.1761C71.892 11.4337 71.659 11.7803 71.5037 12.2159C71.3522 12.6477 71.2764 13.1307 71.2764 13.6648C71.2764 14.1951 71.3522 14.6761 71.5037 15.108C71.659 15.5398 71.892 15.8845 72.2026 16.142C72.517 16.3958 72.9109 16.5227 73.3844 16.5227ZM81.5574 12.8864V18H79.5006V9.27273H81.4665V10.7557H81.5688C81.7695 10.267 82.0896 9.87879 82.529 9.59091C82.9722 9.30303 83.5195 9.15909 84.171 9.15909C84.7733 9.15909 85.2979 9.28788 85.7449 9.54545C86.1956 9.80303 86.5441 10.1761 86.7903 10.6648C87.0403 11.1534 87.1634 11.7462 87.1597 12.4432V18H85.1028V12.7614C85.1028 12.178 84.9513 11.7216 84.6483 11.392C84.3491 11.0625 83.9343 10.8977 83.404 10.8977C83.0441 10.8977 82.7241 10.9773 82.4438 11.1364C82.1672 11.2917 81.9494 11.517 81.7903 11.8125C81.635 12.108 81.5574 12.4659 81.5574 12.8864ZM93.3142 18.1705C92.4392 18.1705 91.6835 17.9886 91.0472 17.625C90.4146 17.2576 89.9278 16.7386 89.5869 16.0682C89.246 15.3939 89.0756 14.6004 89.0756 13.6875C89.0756 12.7898 89.246 12.0019 89.5869 11.3239C89.9316 10.642 90.4127 10.1117 91.0301 9.73295C91.6475 9.35038 92.3729 9.15909 93.2062 9.15909C93.7441 9.15909 94.2517 9.24621 94.729 9.42045C95.21 9.59091 95.6343 9.85606 96.0017 10.2159C96.3729 10.5758 96.6646 11.0341 96.8767 11.5909C97.0888 12.1439 97.1949 12.803 97.1949 13.5682V14.1989H90.0415V12.8125H95.2233C95.2195 12.4186 95.1343 12.0682 94.9676 11.7614C94.8009 11.4508 94.568 11.2064 94.2687 11.0284C93.9733 10.8504 93.6286 10.7614 93.2347 10.7614C92.8142 10.7614 92.4449 10.8636 92.1267 11.0682C91.8085 11.2689 91.5604 11.5341 91.3824 11.8636C91.2081 12.1894 91.1191 12.5473 91.1153 12.9375V14.1477C91.1153 14.6553 91.2081 15.0909 91.3937 15.4545C91.5794 15.8144 91.8388 16.0909 92.1722 16.2841C92.5055 16.4735 92.8956 16.5682 93.3426 16.5682C93.6419 16.5682 93.9127 16.5265 94.1551 16.4432C94.3975 16.3561 94.6078 16.2292 94.7858 16.0625C94.9638 15.8958 95.0983 15.6894 95.1892 15.4432L97.1097 15.6591C96.9884 16.1667 96.7574 16.6098 96.4165 16.9886C96.0794 17.3636 95.6475 17.6553 95.121 17.8636C94.5945 18.0682 93.9922 18.1705 93.3142 18.1705ZM100.402 18.125C100.057 18.125 99.7618 18.0038 99.5156 17.7614C99.2694 17.5189 99.1482 17.2235 99.152 16.875C99.1482 16.5341 99.2694 16.2424 99.5156 16C99.7618 15.7576 100.057 15.6364 100.402 15.6364C100.735 15.6364 101.025 15.7576 101.271 16C101.521 16.2424 101.648 16.5341 101.652 16.875C101.648 17.1061 101.588 17.3163 101.47 17.5057C101.357 17.6951 101.205 17.8466 101.016 17.9602C100.83 18.0701 100.625 18.125 100.402 18.125ZM100.402 11.8977C100.057 11.8977 99.7618 11.7765 99.5156 11.5341C99.2694 11.2879 99.1482 10.9924 99.152 10.6477C99.1482 10.3068 99.2694 10.0152 99.5156 9.77273C99.7618 9.52652 100.057 9.40341 100.402 9.40341C100.735 9.40341 101.025 9.52652 101.271 9.77273C101.521 10.0152 101.648 10.3068 101.652 10.6477C101.648 10.875 101.588 11.0833 101.47 11.2727C101.357 11.4621 101.205 11.6136 101.016 11.7273C100.83 11.8409 100.625 11.8977 100.402 11.8977Z" fill="black"/>
</svg>
