<svg width="42" height="42" viewBox="0 0 42 42" fill="none" xmlns="http://www.w3.org/2000/svg">
<path d="M25.4498 15.5498C25.2521 15.5498 25.0587 15.6085 24.8943 15.7184C24.7298 15.8282 24.6016 15.9844 24.526 16.1672C24.4503 16.3499 24.4305 16.5509 24.4691 16.7449C24.5076 16.9389 24.6029 17.1171 24.7427 17.2569C24.8826 17.3968 25.0608 17.492 25.2547 17.5306C25.4487 17.5692 25.6498 17.5494 25.8325 17.4737C26.0152 17.398 26.1714 17.2699 26.2813 17.1054C26.3912 16.941 26.4498 16.7476 26.4498 16.5498C26.4498 16.2846 26.3445 16.0303 26.1569 15.8427C25.9694 15.6552 25.7151 15.5498 25.4498 15.5498ZM29.2832 17.5665C29.267 16.8751 29.1375 16.191 28.8998 15.5415C28.6879 14.9858 28.3582 14.4826 27.9332 14.0665C27.5205 13.6394 27.0161 13.3117 26.4582 13.1082C25.8104 12.8633 25.1255 12.7308 24.4332 12.7165C23.5498 12.6665 23.2665 12.6665 20.9998 12.6665C18.7332 12.6665 18.4498 12.6665 17.5665 12.7165C16.8741 12.7308 16.1893 12.8633 15.5415 13.1082C14.9846 13.3137 14.4806 13.6411 14.0665 14.0665C13.6394 14.4792 13.3117 14.9835 13.1082 15.5415C12.8633 16.1893 12.7308 16.8741 12.7165 17.5665C12.6665 18.4498 12.6665 18.7332 12.6665 20.9998C12.6665 23.2665 12.6665 23.5498 12.7165 24.4332C12.7308 25.1255 12.8633 25.8104 13.1082 26.4582C13.3117 27.0161 13.6394 27.5205 14.0665 27.9332C14.4806 28.3585 14.9846 28.686 15.5415 28.8915C16.1893 29.1364 16.8741 29.2688 17.5665 29.2832C18.4498 29.3332 18.7332 29.3332 20.9998 29.3332C23.2665 29.3332 23.5498 29.3332 24.4332 29.2832C25.1255 29.2688 25.8104 29.1364 26.4582 28.8915C27.0161 28.688 27.5205 28.3603 27.9332 27.9332C28.36 27.5187 28.6901 27.015 28.8998 26.4582C29.1375 25.8087 29.267 25.1246 29.2832 24.4332C29.2832 23.5498 29.3332 23.2665 29.3332 20.9998C29.3332 18.7332 29.3332 18.4498 29.2832 17.5665ZM27.7832 24.3332C27.7771 24.8621 27.6813 25.3863 27.4998 25.8832C27.3668 26.2458 27.1531 26.5735 26.8748 26.8415C26.6045 27.1169 26.2775 27.3302 25.9165 27.4665C25.4196 27.648 24.8955 27.7438 24.3665 27.7498C23.5332 27.7915 23.2248 27.7998 21.0332 27.7998C18.8415 27.7998 18.5332 27.7998 17.6998 27.7498C17.1506 27.7601 16.6037 27.6755 16.0832 27.4998C15.738 27.3566 15.426 27.1438 15.1665 26.8748C14.8899 26.6071 14.6789 26.2792 14.5498 25.9165C14.3464 25.4125 14.2335 24.8765 14.2165 24.3332C14.2165 23.4998 14.1665 23.1915 14.1665 20.9998C14.1665 18.8082 14.1665 18.4998 14.2165 17.6665C14.2202 17.1257 14.319 16.5898 14.5082 16.0832C14.6549 15.7314 14.8801 15.4179 15.1665 15.1665C15.4197 14.88 15.7326 14.6524 16.0832 14.4998C16.5911 14.3165 17.1265 14.2207 17.6665 14.2165C18.4998 14.2165 18.8082 14.1665 20.9998 14.1665C23.1915 14.1665 23.4998 14.1665 24.3332 14.2165C24.8621 14.2226 25.3863 14.3184 25.8832 14.4998C26.2619 14.6404 26.6017 14.8689 26.8748 15.1665C27.1479 15.4225 27.3613 15.7354 27.4998 16.0832C27.685 16.5906 27.7809 17.1263 27.7832 17.6665C27.8248 18.4998 27.8332 18.8082 27.8332 20.9998C27.8332 23.1915 27.8248 23.4998 27.7832 24.3332ZM20.9998 16.7248C20.1547 16.7265 19.329 16.9786 18.627 17.4494C17.9251 17.9201 17.3785 18.5883 17.0562 19.3696C16.7339 20.1509 16.6504 21.0102 16.8163 21.8389C16.9822 22.6677 17.39 23.4286 17.9882 24.0257C18.5864 24.6227 19.3482 25.029 20.1772 25.1933C21.0063 25.3576 21.8654 25.2724 22.6461 24.9486C23.4267 24.6248 24.0939 24.0769 24.5633 23.374C25.0327 22.6712 25.2832 21.845 25.2832 20.9998C25.2843 20.4374 25.1742 19.8803 24.9592 19.3606C24.7442 18.8409 24.4286 18.3688 24.0306 17.9715C23.6325 17.5742 23.1598 17.2596 22.6397 17.0456C22.1195 16.8317 21.5622 16.7226 20.9998 16.7248ZM20.9998 23.7748C20.451 23.7748 19.9145 23.6121 19.4581 23.3072C19.0018 23.0022 18.6461 22.5688 18.4361 22.0618C18.226 21.5547 18.1711 20.9968 18.2782 20.4585C18.3852 19.9202 18.6495 19.4257 19.0376 19.0376C19.4257 18.6495 19.9202 18.3852 20.4585 18.2782C20.9968 18.1711 21.5547 18.226 22.0618 18.4361C22.5688 18.6461 23.0022 19.0018 23.3072 19.4581C23.6121 19.9145 23.7748 20.451 23.7748 20.9998C23.7748 21.3643 23.7031 21.7251 23.5636 22.0618C23.4241 22.3985 23.2197 22.7044 22.9621 22.9621C22.7044 23.2197 22.3985 23.4241 22.0618 23.5636C21.7251 23.7031 21.3643 23.7748 20.9998 23.7748Z" fill="black"/>
<rect x="1" y="1" width="40" height="40" stroke="black"/>
</svg>
