<svg width="335" height="76" viewBox="0 0 335 76" fill="none" xmlns="http://www.w3.org/2000/svg">
<path fill-rule="evenodd" clip-rule="evenodd" d="M12.0008 0.258789C15.9968 0.258789 19.2369 3.49884 19.2369 7.4949C19.2369 11.4595 14.3813 17.5154 12.0008 20.436C9.62022 17.5166 4.76465 11.4595 4.76465 7.4949C4.76465 3.49884 8.0047 0.258789 12.0008 0.258789ZM16.3636 16.6345C18.3177 18.3344 18.1962 20.9569 15.9957 22.5409C13.7704 24.1429 10.2311 24.1429 8.00582 22.5409C5.80529 20.9569 5.68379 18.3344 7.63794 16.6345C7.85957 16.9495 8.08233 17.2601 8.3062 17.5638C6.98881 18.78 7.11031 20.4934 8.67071 21.6172C10.4921 22.9279 13.5094 22.9279 15.3297 21.6172C16.8901 20.4934 17.0116 18.78 15.6942 17.5638C15.9169 17.2601 16.1408 16.9495 16.3625 16.6345H16.3636ZM12.0008 3.43921C14.2407 3.43921 16.0564 5.25499 16.0564 7.4949C16.0564 9.73481 14.2407 11.5506 12.0008 11.5506C9.76085 11.5506 7.94507 9.73481 7.94507 7.4949C7.94507 5.25499 9.76085 3.43921 12.0008 3.43921Z" fill="#003366"/>
<path d="M48.8153 42.9119V41.8977L53.2898 34.8182H54.0256V36.3892H53.5284L50.1477 41.7386V41.8182H56.1733V42.9119H48.8153ZM53.608 45V42.6037V42.1314V34.8182H54.7812V45H53.608ZM61.4182 45.1392C60.8349 45.1392 60.3096 45.0232 59.8422 44.7912C59.3749 44.5592 59.0004 44.241 58.7186 43.8366C58.4369 43.4323 58.2828 42.9716 58.2563 42.4545H59.4495C59.4959 42.9152 59.7047 43.2964 60.0759 43.598C60.4504 43.8963 60.8979 44.0455 61.4182 44.0455C61.8358 44.0455 62.207 43.9477 62.5319 43.7521C62.86 43.5566 63.1168 43.2881 63.3025 42.9467C63.4914 42.602 63.5858 42.2126 63.5858 41.7784C63.5858 41.3343 63.4881 40.9382 63.2925 40.5902C63.1003 40.2389 62.8351 39.9621 62.4971 39.7599C62.159 39.5578 61.7729 39.455 61.3387 39.4517C61.0271 39.4484 60.7073 39.4964 60.3792 39.5959C60.051 39.692 59.7809 39.8163 59.5688 39.9688L58.4154 39.8295L59.0319 34.8182H64.3216V35.9119H60.0659L59.708 38.9148H59.7676C59.9765 38.7491 60.2383 38.6115 60.5532 38.5021C60.868 38.3928 61.1962 38.3381 61.5375 38.3381C62.1606 38.3381 62.7158 38.4872 63.203 38.7855C63.6935 39.0805 64.078 39.4848 64.3564 39.9986C64.6382 40.5123 64.779 41.099 64.779 41.7585C64.779 42.4081 64.6332 42.9882 64.3415 43.4986C64.0532 44.0057 63.6554 44.4067 63.1483 44.7017C62.6412 44.9934 62.0645 45.1392 61.4182 45.1392ZM70.5335 34.8182V45H69.3006V36.1108H69.2409L66.7551 37.7614V36.5085L69.3006 34.8182H70.5335ZM73.98 45L78.5339 35.9915V35.9119H73.2839V34.8182H79.8067V35.9716L75.2726 45H73.98ZM88.0257 45L85.2417 34.8182H86.4945L88.6223 43.1108H88.7218L90.8894 34.8182H92.2814L94.449 43.1108H94.5485L96.6763 34.8182H97.9292L95.1451 45H93.8723L91.6252 36.8864H91.5456L89.2985 45H88.0257ZM101.043 45.179C100.559 45.179 100.119 45.0878 99.725 44.9055C99.3306 44.7199 99.0174 44.4531 98.7854 44.1051C98.5534 43.7538 98.4374 43.3295 98.4374 42.8324C98.4374 42.3949 98.5236 42.0402 98.6959 41.7685C98.8683 41.4934 99.0986 41.2779 99.387 41.1222C99.6753 40.9664 99.9935 40.8504 100.342 40.7741C100.693 40.6946 101.046 40.6316 101.4 40.5852C101.864 40.5256 102.241 40.4808 102.529 40.451C102.821 40.4179 103.033 40.3632 103.165 40.2869C103.301 40.2107 103.369 40.0781 103.369 39.8892V39.8494C103.369 39.3589 103.235 38.9777 102.967 38.706C102.701 38.4342 102.299 38.2983 101.758 38.2983C101.198 38.2983 100.759 38.4209 100.441 38.6662C100.123 38.9115 99.899 39.1733 99.7698 39.4517L98.6561 39.054C98.855 38.59 99.1202 38.2287 99.4516 37.9702C99.7864 37.7083 100.151 37.526 100.545 37.4233C100.943 37.3172 101.334 37.2642 101.719 37.2642C101.964 37.2642 102.246 37.294 102.564 37.3537C102.885 37.41 103.195 37.5277 103.494 37.7067C103.795 37.8857 104.045 38.1558 104.244 38.517C104.443 38.8783 104.543 39.3622 104.543 39.9688V45H103.369V43.9659H103.31C103.23 44.1316 103.097 44.3089 102.912 44.4979C102.726 44.6868 102.479 44.8475 102.171 44.9801C101.863 45.1127 101.487 45.179 101.043 45.179ZM101.221 44.125C101.686 44.125 102.077 44.0339 102.395 43.8516C102.716 43.6693 102.958 43.4339 103.121 43.1456C103.286 42.8572 103.369 42.554 103.369 42.2358V41.1619C103.319 41.2216 103.21 41.2763 103.041 41.326C102.875 41.3724 102.683 41.4138 102.464 41.4503C102.249 41.4834 102.038 41.5133 101.833 41.5398C101.631 41.563 101.467 41.5829 101.341 41.5994C101.036 41.6392 100.751 41.7038 100.486 41.7933C100.224 41.8795 100.012 42.0104 99.8493 42.1861C99.6902 42.3584 99.6107 42.5937 99.6107 42.892C99.6107 43.2997 99.7615 43.608 100.063 43.8168C100.368 44.0223 100.754 44.125 101.221 44.125ZM112.293 39.0739L111.239 39.3722C111.173 39.1965 111.075 39.0258 110.946 38.8601C110.82 38.6911 110.648 38.5518 110.429 38.4425C110.21 38.3331 109.93 38.2784 109.589 38.2784C109.121 38.2784 108.732 38.3861 108.42 38.6016C108.112 38.8137 107.958 39.0838 107.958 39.4119C107.958 39.7036 108.064 39.9339 108.276 40.103C108.488 40.272 108.82 40.4129 109.27 40.5256L110.404 40.804C111.087 40.9697 111.595 41.2232 111.93 41.5646C112.265 41.9027 112.432 42.3385 112.432 42.8722C112.432 43.3097 112.306 43.7008 112.054 44.0455C111.806 44.3902 111.458 44.6619 111.01 44.8608C110.563 45.0597 110.043 45.1591 109.449 45.1591C108.67 45.1591 108.026 44.9901 107.515 44.652C107.005 44.3139 106.682 43.8201 106.546 43.1705L107.66 42.892C107.766 43.303 107.966 43.6113 108.261 43.8168C108.559 44.0223 108.949 44.125 109.429 44.125C109.976 44.125 110.411 44.009 110.732 43.777C111.057 43.5417 111.219 43.2599 111.219 42.9318C111.219 42.6667 111.126 42.4446 110.941 42.2656C110.755 42.0833 110.47 41.9474 110.086 41.858L108.813 41.5597C108.114 41.3939 107.6 41.1371 107.272 40.7891C106.947 40.4377 106.785 39.9986 106.785 39.4716C106.785 39.0407 106.906 38.6596 107.148 38.3281C107.393 37.9967 107.726 37.7365 108.147 37.5476C108.571 37.3587 109.052 37.2642 109.589 37.2642C110.344 37.2642 110.938 37.4299 111.368 37.7614C111.803 38.0928 112.111 38.5303 112.293 39.0739ZM115.572 40.4062V45H114.398V34.8182H115.572V38.5568H115.671C115.85 38.1624 116.119 37.8492 116.477 37.6172C116.838 37.3819 117.318 37.2642 117.918 37.2642C118.439 37.2642 118.894 37.3686 119.286 37.5774C119.677 37.7829 119.98 38.0994 120.195 38.527C120.414 38.9512 120.523 39.4915 120.523 40.1477V45H119.35V40.2273C119.35 39.6207 119.193 39.1518 118.878 38.8203C118.566 38.4856 118.134 38.3182 117.58 38.3182C117.196 38.3182 116.851 38.3994 116.546 38.5618C116.245 38.7242 116.006 38.9612 115.83 39.2727C115.658 39.5843 115.572 39.9621 115.572 40.4062ZM122.87 45V37.3636H124.043V45H122.87ZM123.467 36.0909C123.238 36.0909 123.041 36.013 122.875 35.8572C122.713 35.7015 122.631 35.5142 122.631 35.2955C122.631 35.0767 122.713 34.8894 122.875 34.7337C123.041 34.5779 123.238 34.5 123.467 34.5C123.695 34.5 123.891 34.5779 124.053 34.7337C124.219 34.8894 124.302 35.0767 124.302 35.2955C124.302 35.5142 124.219 35.7015 124.053 35.8572C123.891 36.013 123.695 36.0909 123.467 36.0909ZM127.566 40.4062V45H126.392V37.3636H127.526V38.5568H127.625C127.804 38.169 128.076 37.8575 128.441 37.6222C128.805 37.3835 129.276 37.2642 129.852 37.2642C130.369 37.2642 130.822 37.3703 131.21 37.5824C131.597 37.7912 131.899 38.1094 132.115 38.5369C132.33 38.9612 132.438 39.4981 132.438 40.1477V45H131.264V40.2273C131.264 39.6274 131.109 39.16 130.797 38.8253C130.485 38.4872 130.058 38.3182 129.514 38.3182C129.14 38.3182 128.805 38.3994 128.51 38.5618C128.218 38.7242 127.988 38.9612 127.819 39.2727C127.65 39.5843 127.566 39.9621 127.566 40.4062ZM137.864 48.0227C137.297 48.0227 136.81 47.9498 136.402 47.804C135.995 47.6615 135.655 47.4725 135.383 47.2372C135.115 47.0052 134.901 46.7566 134.742 46.4915L135.677 45.8352C135.783 45.9744 135.917 46.1335 136.079 46.3125C136.242 46.4948 136.464 46.6522 136.745 46.7848C137.03 46.9207 137.403 46.9886 137.864 46.9886C138.481 46.9886 138.989 46.8395 139.39 46.5412C139.791 46.2429 139.992 45.7756 139.992 45.1392V43.5881H139.892C139.806 43.7273 139.684 43.8996 139.525 44.1051C139.369 44.3073 139.143 44.4879 138.848 44.647C138.557 44.8028 138.162 44.8807 137.665 44.8807C137.049 44.8807 136.495 44.7348 136.005 44.4432C135.517 44.1515 135.131 43.7273 134.846 43.1705C134.565 42.6136 134.424 41.9375 134.424 41.142C134.424 40.3598 134.561 39.6787 134.836 39.0987C135.111 38.5154 135.494 38.0646 135.985 37.7464C136.475 37.425 137.042 37.2642 137.685 37.2642C138.182 37.2642 138.577 37.3471 138.868 37.5128C139.163 37.6752 139.389 37.8608 139.544 38.0696C139.704 38.2751 139.826 38.4441 139.912 38.5767H140.032V37.3636H141.165V45.2188C141.165 45.875 141.016 46.4086 140.718 46.8196C140.423 47.2339 140.025 47.5372 139.525 47.7294C139.027 47.925 138.474 48.0227 137.864 48.0227ZM137.824 43.8267C138.295 43.8267 138.693 43.719 139.017 43.5036C139.342 43.2881 139.589 42.9782 139.758 42.5739C139.927 42.1695 140.012 41.6856 140.012 41.1222C140.012 40.572 139.929 40.0864 139.763 39.6655C139.597 39.2446 139.352 38.9148 139.027 38.6761C138.703 38.4375 138.302 38.3182 137.824 38.3182C137.327 38.3182 136.913 38.4441 136.581 38.696C136.253 38.9479 136.006 39.286 135.841 39.7102C135.678 40.1345 135.597 40.6051 135.597 41.1222C135.597 41.6525 135.68 42.1214 135.846 42.5291C136.015 42.9335 136.263 43.2517 136.591 43.4837C136.923 43.7124 137.334 43.8267 137.824 43.8267ZM146.834 37.3636V38.358H142.877V37.3636H146.834ZM144.03 35.5341H145.203V42.8125C145.203 43.1439 145.251 43.3925 145.347 43.5582C145.447 43.7206 145.573 43.83 145.725 43.8864C145.881 43.9394 146.045 43.9659 146.217 43.9659C146.347 43.9659 146.453 43.9593 146.536 43.946C146.619 43.9295 146.685 43.9162 146.735 43.9062L146.973 44.9602C146.894 44.9901 146.783 45.0199 146.64 45.0497C146.498 45.0829 146.317 45.0994 146.098 45.0994C145.767 45.0994 145.442 45.0282 145.124 44.8857C144.809 44.7431 144.547 44.526 144.338 44.2344C144.133 43.9427 144.03 43.5748 144.03 43.1307V35.5341ZM151.819 45.1591C151.13 45.1591 150.525 44.995 150.004 44.6669C149.487 44.3388 149.083 43.8797 148.791 43.2898C148.503 42.6998 148.359 42.0104 148.359 41.2216C148.359 40.4261 148.503 39.7318 148.791 39.1385C149.083 38.5452 149.487 38.0845 150.004 37.7564C150.525 37.4283 151.13 37.2642 151.819 37.2642C152.508 37.2642 153.112 37.4283 153.629 37.7564C154.149 38.0845 154.553 38.5452 154.842 39.1385C155.133 39.7318 155.279 40.4261 155.279 41.2216C155.279 42.0104 155.133 42.6998 154.842 43.2898C154.553 43.8797 154.149 44.3388 153.629 44.6669C153.112 44.995 152.508 45.1591 151.819 45.1591ZM151.819 44.1051C152.343 44.1051 152.774 43.9709 153.112 43.7024C153.45 43.4339 153.7 43.081 153.862 42.6435C154.025 42.206 154.106 41.732 154.106 41.2216C154.106 40.7112 154.025 40.2356 153.862 39.7947C153.7 39.3539 153.45 38.9976 153.112 38.7259C152.774 38.4541 152.343 38.3182 151.819 38.3182C151.295 38.3182 150.865 38.4541 150.526 38.7259C150.188 38.9976 149.938 39.3539 149.776 39.7947C149.613 40.2356 149.532 40.7112 149.532 41.2216C149.532 41.732 149.613 42.206 149.776 42.6435C149.938 43.081 150.188 43.4339 150.526 43.7024C150.865 43.9709 151.295 44.1051 151.819 44.1051ZM158.444 40.4062V45H157.27V37.3636H158.404V38.5568H158.503C158.682 38.169 158.954 37.8575 159.319 37.6222C159.683 37.3835 160.154 37.2642 160.731 37.2642C161.248 37.2642 161.7 37.3703 162.088 37.5824C162.476 37.7912 162.777 38.1094 162.993 38.5369C163.208 38.9612 163.316 39.4981 163.316 40.1477V45H162.143V40.2273C162.143 39.6274 161.987 39.16 161.675 38.8253C161.364 38.4872 160.936 38.3182 160.393 38.3182C160.018 38.3182 159.683 38.3994 159.388 38.5618C159.097 38.7242 158.866 38.9612 158.697 39.2727C158.528 39.5843 158.444 39.9621 158.444 40.4062ZM170.374 45H169.081L172.82 34.8182H174.093L177.831 45H176.539L173.496 36.429H173.417L170.374 45ZM170.851 41.0227H176.062V42.1165H170.851V41.0227ZM184.746 37.3636L181.922 45H180.728L177.905 37.3636H179.177L181.285 43.4489H181.365L183.473 37.3636H184.746ZM189.422 45.1591C188.687 45.1591 188.052 44.9967 187.518 44.6719C186.988 44.3438 186.579 43.8864 186.29 43.2997C186.005 42.7098 185.863 42.0237 185.863 41.2415C185.863 40.4593 186.005 39.7699 186.29 39.1733C186.579 38.5734 186.98 38.1061 187.493 37.7713C188.011 37.4332 188.614 37.2642 189.303 37.2642C189.701 37.2642 190.094 37.3305 190.481 37.4631C190.869 37.5956 191.222 37.8111 191.54 38.1094C191.859 38.4044 192.112 38.7955 192.301 39.2827C192.49 39.7699 192.584 40.3698 192.584 41.0824V41.5795H186.698V40.5653H191.391C191.391 40.1345 191.305 39.75 191.133 39.4119C190.964 39.0739 190.722 38.8071 190.407 38.6115C190.095 38.416 189.727 38.3182 189.303 38.3182C188.836 38.3182 188.431 38.4342 188.09 38.6662C187.752 38.8949 187.492 39.1932 187.31 39.5611C187.127 39.929 187.036 40.3234 187.036 40.7443V41.4205C187.036 41.9972 187.136 42.486 187.334 42.8871C187.537 43.2848 187.817 43.5881 188.175 43.7969C188.533 44.0024 188.948 44.1051 189.422 44.1051C189.731 44.1051 190.009 44.062 190.258 43.9759C190.51 43.8864 190.727 43.7538 190.909 43.5781C191.091 43.3991 191.232 43.1771 191.332 42.9119L192.465 43.2301C192.346 43.6146 192.145 43.9527 191.864 44.2443C191.582 44.5327 191.234 44.758 190.819 44.9205C190.405 45.0795 189.939 45.1591 189.422 45.1591ZM195.424 45.0795C195.179 45.0795 194.969 44.9917 194.793 44.8161C194.617 44.6404 194.529 44.4299 194.529 44.1847C194.529 43.9394 194.617 43.7289 194.793 43.5533C194.969 43.3776 195.179 43.2898 195.424 43.2898C195.67 43.2898 195.88 43.3776 196.056 43.5533C196.231 43.7289 196.319 43.9394 196.319 44.1847C196.319 44.3471 196.278 44.4962 196.195 44.6321C196.115 44.768 196.008 44.8774 195.872 44.9602C195.739 45.0398 195.59 45.0795 195.424 45.0795ZM202.921 34.8182H204.393L207.853 43.2699H207.972L211.433 34.8182H212.904V45H211.751V37.2642H211.651L208.47 45H207.356L204.174 37.2642H204.075V45H202.921V34.8182ZM217.664 45.179C217.18 45.179 216.741 45.0878 216.347 44.9055C215.952 44.7199 215.639 44.4531 215.407 44.1051C215.175 43.7538 215.059 43.3295 215.059 42.8324C215.059 42.3949 215.145 42.0402 215.318 41.7685C215.49 41.4934 215.72 41.2779 216.009 41.1222C216.297 40.9664 216.615 40.8504 216.963 40.7741C217.315 40.6946 217.668 40.6316 218.022 40.5852C218.486 40.5256 218.863 40.4808 219.151 40.451C219.443 40.4179 219.655 40.3632 219.787 40.2869C219.923 40.2107 219.991 40.0781 219.991 39.8892V39.8494C219.991 39.3589 219.857 38.9777 219.588 38.706C219.323 38.4342 218.921 38.2983 218.38 38.2983C217.82 38.2983 217.381 38.4209 217.063 38.6662C216.745 38.9115 216.521 39.1733 216.392 39.4517L215.278 39.054C215.477 38.59 215.742 38.2287 216.073 37.9702C216.408 37.7083 216.773 37.526 217.167 37.4233C217.565 37.3172 217.956 37.2642 218.341 37.2642C218.586 37.2642 218.868 37.294 219.186 37.3537C219.507 37.41 219.817 37.5277 220.115 37.7067C220.417 37.8857 220.667 38.1558 220.866 38.517C221.065 38.8783 221.164 39.3622 221.164 39.9688V45H219.991V43.9659H219.931C219.852 44.1316 219.719 44.3089 219.534 44.4979C219.348 44.6868 219.101 44.8475 218.793 44.9801C218.485 45.1127 218.109 45.179 217.664 45.179ZM217.843 44.125C218.307 44.125 218.698 44.0339 219.017 43.8516C219.338 43.6693 219.58 43.4339 219.743 43.1456C219.908 42.8572 219.991 42.554 219.991 42.2358V41.1619C219.941 41.2216 219.832 41.2763 219.663 41.326C219.497 41.3724 219.305 41.4138 219.086 41.4503C218.871 41.4834 218.66 41.5133 218.455 41.5398C218.253 41.563 218.089 41.5829 217.963 41.5994C217.658 41.6392 217.373 41.7038 217.108 41.7933C216.846 41.8795 216.634 42.0104 216.471 42.1861C216.312 42.3584 216.233 42.5937 216.233 42.892C216.233 43.2997 216.383 43.608 216.685 43.8168C216.99 44.0223 217.376 44.125 217.843 44.125ZM224.679 40.4062V45H223.506V37.3636H224.639V38.5568H224.739C224.918 38.169 225.19 37.8575 225.554 37.6222C225.919 37.3835 226.389 37.2642 226.966 37.2642C227.483 37.2642 227.936 37.3703 228.323 37.5824C228.711 37.7912 229.013 38.1094 229.228 38.5369C229.444 38.9612 229.551 39.4981 229.551 40.1477V45H228.378V40.2273C228.378 39.6274 228.222 39.16 227.911 38.8253C227.599 38.4872 227.172 38.3182 226.628 38.3182C226.254 38.3182 225.919 38.3994 225.624 38.5618C225.332 38.7242 225.102 38.9612 224.933 39.2727C224.764 39.5843 224.679 39.9621 224.679 40.4062ZM234.998 45.1591C234.282 45.1591 233.665 44.9901 233.148 44.652C232.631 44.3139 232.233 43.8482 231.955 43.255C231.677 42.6617 231.537 41.9839 231.537 41.2216C231.537 40.446 231.68 39.7616 231.965 39.1683C232.253 38.5717 232.654 38.1061 233.168 37.7713C233.685 37.4332 234.288 37.2642 234.978 37.2642C235.515 37.2642 235.999 37.3636 236.429 37.5625C236.86 37.7614 237.213 38.0398 237.488 38.3977C237.763 38.7557 237.934 39.1733 238 39.6506H236.827C236.738 39.3026 236.539 38.9943 236.231 38.7259C235.926 38.4541 235.515 38.3182 234.998 38.3182C234.54 38.3182 234.139 38.4375 233.794 38.6761C233.453 38.9115 233.186 39.2446 232.994 39.6754C232.805 40.103 232.711 40.6051 232.711 41.1818C232.711 41.7718 232.803 42.2855 232.989 42.723C233.178 43.1605 233.443 43.5002 233.785 43.7422C234.129 43.9841 234.534 44.1051 234.998 44.1051C235.303 44.1051 235.579 44.0521 235.828 43.946C236.076 43.84 236.287 43.6875 236.459 43.4886C236.632 43.2898 236.754 43.0511 236.827 42.7727H238C237.934 43.2235 237.77 43.6295 237.508 43.9908C237.25 44.3487 236.907 44.6338 236.479 44.8459C236.055 45.0547 235.561 45.1591 234.998 45.1591ZM241.089 40.4062V45H239.916V34.8182H241.089V38.5568H241.188C241.367 38.1624 241.636 37.8492 241.994 37.6172C242.355 37.3819 242.836 37.2642 243.436 37.2642C243.956 37.2642 244.412 37.3686 244.803 37.5774C245.194 37.7829 245.497 38.0994 245.713 38.527C245.931 38.9512 246.041 39.4915 246.041 40.1477V45H244.867V40.2273C244.867 39.6207 244.71 39.1518 244.395 38.8203C244.084 38.4856 243.651 38.3182 243.097 38.3182C242.713 38.3182 242.368 38.3994 242.063 38.5618C241.762 38.7242 241.523 38.9612 241.347 39.2727C241.175 39.5843 241.089 39.9621 241.089 40.4062ZM251.589 45.1591C250.853 45.1591 250.218 44.9967 249.685 44.6719C249.154 44.3438 248.745 43.8864 248.457 43.2997C248.172 42.7098 248.029 42.0237 248.029 41.2415C248.029 40.4593 248.172 39.7699 248.457 39.1733C248.745 38.5734 249.146 38.1061 249.66 37.7713C250.177 37.4332 250.78 37.2642 251.47 37.2642C251.867 37.2642 252.26 37.3305 252.648 37.4631C253.036 37.5956 253.389 37.8111 253.707 38.1094C254.025 38.4044 254.278 38.7955 254.467 39.2827C254.656 39.7699 254.751 40.3698 254.751 41.0824V41.5795H248.864V40.5653H253.558C253.558 40.1345 253.471 39.75 253.299 39.4119C253.13 39.0739 252.888 38.8071 252.573 38.6115C252.262 38.416 251.894 38.3182 251.47 38.3182C251.002 38.3182 250.598 38.4342 250.256 38.6662C249.918 38.8949 249.658 39.1932 249.476 39.5611C249.294 39.929 249.202 40.3234 249.202 40.7443V41.4205C249.202 41.9972 249.302 42.486 249.501 42.8871C249.703 43.2848 249.983 43.5881 250.341 43.7969C250.699 44.0024 251.115 44.1051 251.589 44.1051C251.897 44.1051 252.175 44.062 252.424 43.9759C252.676 43.8864 252.893 43.7538 253.075 43.5781C253.258 43.3991 253.399 43.1771 253.498 42.9119L254.631 43.2301C254.512 43.6146 254.312 43.9527 254.03 44.2443C253.748 44.5327 253.4 44.758 252.986 44.9205C252.572 45.0795 252.106 45.1591 251.589 45.1591ZM262.145 39.0739L261.091 39.3722C261.024 39.1965 260.927 39.0258 260.797 38.8601C260.671 38.6911 260.499 38.5518 260.28 38.4425C260.062 38.3331 259.782 38.2784 259.44 38.2784C258.973 38.2784 258.583 38.3861 258.272 38.6016C257.964 38.8137 257.809 39.0838 257.809 39.4119C257.809 39.7036 257.916 39.9339 258.128 40.103C258.34 40.272 258.671 40.4129 259.122 40.5256L260.255 40.804C260.938 40.9697 261.447 41.2232 261.782 41.5646C262.116 41.9027 262.284 42.3385 262.284 42.8722C262.284 43.3097 262.158 43.7008 261.906 44.0455C261.657 44.3902 261.309 44.6619 260.862 44.8608C260.415 45.0597 259.894 45.1591 259.301 45.1591C258.522 45.1591 257.877 44.9901 257.367 44.652C256.857 44.3139 256.533 43.8201 256.398 43.1705L257.511 42.892C257.617 43.303 257.818 43.6113 258.113 43.8168C258.411 44.0223 258.8 44.125 259.281 44.125C259.828 44.125 260.262 44.009 260.584 43.777C260.908 43.5417 261.071 43.2599 261.071 42.9318C261.071 42.6667 260.978 42.4446 260.792 42.2656C260.607 42.0833 260.322 41.9474 259.937 41.858L258.665 41.5597C257.965 41.3939 257.451 41.1371 257.123 40.7891C256.799 40.4377 256.636 39.9986 256.636 39.4716C256.636 39.0407 256.757 38.6596 256.999 38.3281C257.244 37.9967 257.577 37.7365 257.998 37.5476C258.423 37.3587 258.903 37.2642 259.44 37.2642C260.196 37.2642 260.789 37.4299 261.22 37.7614C261.654 38.0928 261.962 38.5303 262.145 39.0739ZM267.571 37.3636V38.358H263.614V37.3636H267.571ZM264.767 35.5341H265.94V42.8125C265.94 43.1439 265.988 43.3925 266.085 43.5582C266.184 43.7206 266.31 43.83 266.462 43.8864C266.618 43.9394 266.782 43.9659 266.955 43.9659C267.084 43.9659 267.19 43.9593 267.273 43.946C267.356 43.9295 267.422 43.9162 267.472 43.9062L267.71 44.9602C267.631 44.9901 267.52 45.0199 267.377 45.0497C267.235 45.0829 267.054 45.0994 266.835 45.0994C266.504 45.0994 266.179 45.0282 265.861 44.8857C265.546 44.7431 265.284 44.526 265.075 44.2344C264.87 43.9427 264.767 43.5748 264.767 43.1307V35.5341ZM272.656 45.1591C271.92 45.1591 271.285 44.9967 270.752 44.6719C270.221 44.3438 269.812 43.8864 269.524 43.2997C269.239 42.7098 269.096 42.0237 269.096 41.2415C269.096 40.4593 269.239 39.7699 269.524 39.1733C269.812 38.5734 270.213 38.1061 270.727 37.7713C271.244 37.4332 271.847 37.2642 272.536 37.2642C272.934 37.2642 273.327 37.3305 273.715 37.4631C274.102 37.5956 274.455 37.8111 274.774 38.1094C275.092 38.4044 275.345 38.7955 275.534 39.2827C275.723 39.7699 275.818 40.3698 275.818 41.0824V41.5795H269.931V40.5653H274.624C274.624 40.1345 274.538 39.75 274.366 39.4119C274.197 39.0739 273.955 38.8071 273.64 38.6115C273.328 38.416 272.961 38.3182 272.536 38.3182C272.069 38.3182 271.665 38.4342 271.323 38.6662C270.985 38.8949 270.725 39.1932 270.543 39.5611C270.36 39.929 270.269 40.3234 270.269 40.7443V41.4205C270.269 41.9972 270.369 42.486 270.568 42.8871C270.77 43.2848 271.05 43.5881 271.408 43.7969C271.766 44.0024 272.182 44.1051 272.656 44.1051C272.964 44.1051 273.242 44.062 273.491 43.9759C273.743 43.8864 273.96 43.7538 274.142 43.5781C274.324 43.3991 274.465 43.1771 274.565 42.9119L275.698 43.2301C275.579 43.6146 275.378 43.9527 275.097 44.2443C274.815 44.5327 274.467 44.758 274.053 44.9205C273.638 45.0795 273.173 45.1591 272.656 45.1591ZM277.802 45V37.3636H278.936V38.517H279.015C279.155 38.1392 279.407 37.8326 279.771 37.5973C280.136 37.362 280.547 37.2443 281.004 37.2443C281.09 37.2443 281.198 37.246 281.327 37.2493C281.456 37.2526 281.554 37.2576 281.621 37.2642V38.4574C281.581 38.4474 281.49 38.4325 281.347 38.4126C281.208 38.3894 281.06 38.3778 280.905 38.3778C280.533 38.3778 280.202 38.4557 279.91 38.6115C279.622 38.764 279.393 38.9761 279.224 39.2479C279.059 39.5163 278.976 39.8229 278.976 40.1676V45H277.802ZM284.086 43.608L284.007 44.1449C283.95 44.5227 283.864 44.9271 283.748 45.358C283.636 45.7888 283.518 46.1948 283.395 46.576C283.273 46.9571 283.172 47.2604 283.092 47.4858H282.197C282.24 47.2737 282.297 46.9936 282.366 46.6456C282.436 46.2976 282.505 45.9081 282.575 45.4773C282.648 45.0497 282.708 44.6122 282.754 44.1648L282.814 43.608H284.086ZM49.233 69V58.8182H50.4659V63.8693H50.5852L55.1591 58.8182H56.7699L52.4943 63.4119L56.7699 69H55.2784L51.7386 64.267L50.4659 65.6989V69H49.233ZM61.0478 69.1591C60.312 69.1591 59.6773 68.9967 59.1437 68.6719C58.6134 68.3438 58.2041 67.8864 57.9157 67.2997C57.6307 66.7098 57.4882 66.0237 57.4882 65.2415C57.4882 64.4593 57.6307 63.7699 57.9157 63.1733C58.2041 62.5734 58.6051 62.1061 59.1189 61.7713C59.6359 61.4332 60.2391 61.2642 60.9285 61.2642C61.3262 61.2642 61.719 61.3305 62.1068 61.4631C62.4946 61.5956 62.8475 61.8111 63.1657 62.1094C63.4839 62.4044 63.7375 62.7955 63.9264 63.2827C64.1153 63.7699 64.2098 64.3698 64.2098 65.0824V65.5795H58.3234V64.5653H63.0166C63.0166 64.1345 62.9304 63.75 62.7581 63.4119C62.589 63.0739 62.3471 62.8071 62.0322 62.6115C61.7207 62.416 61.3528 62.3182 60.9285 62.3182C60.4612 62.3182 60.0568 62.4342 59.7154 62.6662C59.3774 62.8949 59.1172 63.1932 58.9349 63.5611C58.7526 63.929 58.6615 64.3234 58.6615 64.7443V65.4205C58.6615 65.9972 58.7609 66.486 58.9598 66.8871C59.1619 67.2848 59.442 67.5881 59.8 67.7969C60.1579 68.0024 60.5739 68.1051 61.0478 68.1051C61.3561 68.1051 61.6345 68.062 61.8831 67.9759C62.135 67.8864 62.352 67.7538 62.5343 67.5781C62.7166 67.3991 62.8575 67.1771 62.9569 66.9119L64.0904 67.2301C63.9711 67.6146 63.7706 67.9527 63.4889 68.2443C63.2072 68.5327 62.8591 68.758 62.4449 68.9205C62.0306 69.0795 61.5649 69.1591 61.0478 69.1591ZM67.3679 64.4062V69H66.1946V61.3636H67.3281V62.5568H67.4275C67.6065 62.169 67.8783 61.8575 68.2429 61.6222C68.6074 61.3835 69.0781 61.2642 69.6548 61.2642C70.1718 61.2642 70.6243 61.3703 71.012 61.5824C71.3998 61.7912 71.7014 62.1094 71.9169 62.5369C72.1323 62.9612 72.24 63.4981 72.24 64.1477V69H71.0667V64.2273C71.0667 63.6274 70.9109 63.16 70.5994 62.8253C70.2878 62.4872 69.8603 62.3182 69.3167 62.3182C68.9422 62.3182 68.6074 62.3994 68.3125 62.5618C68.0208 62.7242 67.7904 62.9612 67.6214 63.2727C67.4524 63.5843 67.3679 63.9621 67.3679 64.4062ZM77.905 61.3636V62.358H73.9477V61.3636H77.905ZM75.1011 59.5341H76.2744V66.8125C76.2744 67.1439 76.3224 67.3925 76.4185 67.5582C76.518 67.7206 76.6439 67.83 76.7964 67.8864C76.9522 67.9394 77.1162 67.9659 77.2886 67.9659C77.4178 67.9659 77.5239 67.9593 77.6067 67.946C77.6896 67.9295 77.7559 67.9162 77.8056 67.9062L78.0442 68.9602C77.9647 68.9901 77.8537 69.0199 77.7112 69.0497C77.5686 69.0829 77.388 69.0994 77.1692 69.0994C76.8378 69.0994 76.513 69.0282 76.1948 68.8857C75.8799 68.7431 75.6181 68.526 75.4093 68.2344C75.2038 67.9427 75.1011 67.5748 75.1011 67.1307V59.5341ZM84.6825 65.8778V61.3636H85.8558V69H84.6825V67.7074H84.6029C84.4239 68.0952 84.1455 68.425 83.7677 68.6967C83.3898 68.9652 82.9126 69.0994 82.3359 69.0994C81.8586 69.0994 81.4344 68.995 81.0631 68.7862C80.6919 68.5741 80.4003 68.2559 80.1881 67.8317C79.976 67.4041 79.87 66.8655 79.87 66.2159V61.3636H81.0433V66.1364C81.0433 66.6932 81.199 67.1373 81.5106 67.4688C81.8254 67.8002 82.2265 67.9659 82.7137 67.9659C83.0054 67.9659 83.302 67.8913 83.6036 67.7422C83.9085 67.593 84.1638 67.3643 84.3692 67.0561C84.5781 66.7479 84.6825 66.3551 84.6825 65.8778ZM91.307 69.1591C90.5911 69.1591 89.9746 68.9901 89.4576 68.652C88.9405 68.3139 88.5428 67.8482 88.2644 67.255C87.986 66.6617 87.8468 65.9839 87.8468 65.2216C87.8468 64.446 87.9893 63.7616 88.2743 63.1683C88.5627 62.5717 88.9637 62.1061 89.4775 61.7713C89.9945 61.4332 90.5977 61.2642 91.2871 61.2642C91.824 61.2642 92.3079 61.3636 92.7388 61.5625C93.1697 61.7614 93.5227 62.0398 93.7978 62.3977C94.0729 62.7557 94.2435 63.1733 94.3098 63.6506H93.1365C93.0471 63.3026 92.8482 62.9943 92.54 62.7259C92.235 62.4541 91.824 62.3182 91.307 62.3182C90.8496 62.3182 90.4486 62.4375 90.1039 62.6761C89.7625 62.9115 89.4957 63.2446 89.3034 63.6754C89.1145 64.103 89.0201 64.6051 89.0201 65.1818C89.0201 65.7718 89.1129 66.2855 89.2985 66.723C89.4874 67.1605 89.7525 67.5002 90.0939 67.7422C90.4386 67.9841 90.843 68.1051 91.307 68.1051C91.6119 68.1051 91.8887 68.0521 92.1373 67.946C92.3858 67.84 92.5963 67.6875 92.7686 67.4886C92.941 67.2898 93.0636 67.0511 93.1365 66.7727H94.3098C94.2435 67.2235 94.0795 67.6295 93.8176 67.9908C93.5591 68.3487 93.2161 68.6338 92.7885 68.8459C92.3643 69.0547 91.8704 69.1591 91.307 69.1591ZM97.3188 66.2159L97.2989 64.7642H97.5375L100.878 61.3636H102.33L98.7705 64.9631H98.6711L97.3188 66.2159ZM96.225 69V58.8182H97.3983V69H96.225ZM101.077 69L98.0944 65.2216L98.9296 64.4062L102.569 69H101.077ZM104.796 71.8636C104.597 71.8636 104.42 71.8471 104.264 71.8139C104.108 71.7841 104 71.7543 103.941 71.7244L104.239 70.6903C104.524 70.7633 104.776 70.7898 104.995 70.7699C105.214 70.75 105.407 70.6522 105.576 70.4766C105.749 70.3042 105.906 70.0241 106.049 69.6364L106.268 69.0398L103.444 61.3636H104.716L106.824 67.4489H106.904L109.012 61.3636H110.285L107.043 70.1136C106.897 70.508 106.717 70.8345 106.501 71.093C106.286 71.3549 106.036 71.5488 105.75 71.6747C105.469 71.8007 105.151 71.8636 104.796 71.8636ZM119.591 69.1392C118.935 69.1392 118.35 69.0265 117.836 68.8011C117.326 68.5758 116.92 68.2625 116.618 67.8615C116.32 67.4571 116.157 66.9882 116.131 66.4545H117.384C117.41 66.7827 117.523 67.0661 117.722 67.3047C117.921 67.54 118.181 67.7223 118.502 67.8516C118.824 67.9808 119.18 68.0455 119.571 68.0455C120.009 68.0455 120.397 67.9692 120.735 67.8168C121.073 67.6643 121.338 67.4522 121.53 67.1804C121.722 66.9086 121.818 66.5938 121.818 66.2358C121.818 65.8613 121.726 65.5315 121.54 65.2464C121.354 64.9581 121.083 64.7327 120.725 64.5703C120.367 64.4079 119.929 64.3267 119.412 64.3267H118.597V63.233H119.412C119.817 63.233 120.171 63.16 120.476 63.0142C120.784 62.8684 121.025 62.6629 121.197 62.3977C121.373 62.1326 121.461 61.821 121.461 61.4631C121.461 61.1184 121.384 60.8184 121.232 60.5632C121.079 60.308 120.864 60.1091 120.586 59.9666C120.31 59.8241 119.986 59.7528 119.611 59.7528C119.26 59.7528 118.928 59.8175 118.617 59.9467C118.309 60.0727 118.057 60.2566 117.861 60.4986C117.666 60.7372 117.559 61.0256 117.543 61.3636H116.35C116.37 60.83 116.53 60.3627 116.832 59.9616C117.134 59.5573 117.528 59.2424 118.015 59.017C118.506 58.7917 119.044 58.679 119.631 58.679C120.261 58.679 120.801 58.8066 121.252 59.0618C121.702 59.3137 122.049 59.6468 122.291 60.0611C122.533 60.4754 122.654 60.9228 122.654 61.4034C122.654 61.9768 122.503 62.4657 122.201 62.87C121.903 63.2744 121.497 63.5545 120.983 63.7102V63.7898C121.626 63.8958 122.128 64.1693 122.49 64.6101C122.851 65.0476 123.032 65.5895 123.032 66.2358C123.032 66.7893 122.881 67.2865 122.579 67.7273C122.281 68.1648 121.873 68.5095 121.356 68.7614C120.839 69.0133 120.251 69.1392 119.591 69.1392ZM128.506 58.679C128.924 58.6823 129.342 58.7618 129.759 58.9176C130.177 59.0734 130.558 59.3319 130.903 59.6932C131.247 60.0511 131.524 60.54 131.733 61.1598C131.942 61.7796 132.046 62.5568 132.046 63.4915C132.046 64.3963 131.96 65.2 131.788 65.9027C131.619 66.602 131.373 67.192 131.052 67.6726C130.734 68.1532 130.346 68.5178 129.888 68.7663C129.434 69.0149 128.921 69.1392 128.347 69.1392C127.777 69.1392 127.268 69.0265 126.821 68.8011C126.377 68.5724 126.012 68.2559 125.727 67.8516C125.446 67.4439 125.265 66.9716 125.185 66.4347H126.398C126.508 66.902 126.725 67.2881 127.05 67.593C127.378 67.8946 127.81 68.0455 128.347 68.0455C129.133 68.0455 129.753 67.7024 130.207 67.0163C130.664 66.3303 130.893 65.3608 130.893 64.108H130.813C130.628 64.3864 130.407 64.6267 130.152 64.8288C129.897 65.031 129.613 65.1868 129.302 65.2962C128.99 65.4055 128.659 65.4602 128.308 65.4602C127.724 65.4602 127.189 65.3161 126.702 65.0277C126.218 64.736 125.83 64.3366 125.538 63.8295C125.25 63.3191 125.106 62.7358 125.106 62.0795C125.106 61.4564 125.245 60.8864 125.523 60.3693C125.805 59.849 126.2 59.4347 126.707 59.1264C127.217 58.8182 127.817 58.669 128.506 58.679ZM128.506 59.7727C128.089 59.7727 127.713 59.8771 127.378 60.0859C127.046 60.2914 126.783 60.5698 126.587 60.9212C126.395 61.2692 126.299 61.6553 126.299 62.0795C126.299 62.5038 126.392 62.8899 126.577 63.2379C126.766 63.5826 127.023 63.8577 127.348 64.0632C127.676 64.2654 128.049 64.3665 128.467 64.3665C128.781 64.3665 129.075 64.3052 129.347 64.1825C129.618 64.0566 129.855 63.8859 130.058 63.6705C130.263 63.4517 130.424 63.2048 130.54 62.9297C130.656 62.6513 130.714 62.3613 130.714 62.0597C130.714 61.6619 130.618 61.2891 130.425 60.9411C130.237 60.593 129.975 60.3113 129.64 60.0959C129.308 59.8804 128.931 59.7727 128.506 59.7727ZM133.963 66.9119V65.8977L138.437 58.8182H139.173V60.3892H138.676L135.295 65.7386V65.8182H141.321V66.9119H133.963ZM138.755 69V66.6037V66.1314V58.8182H139.929V69H138.755ZM146.625 58.679C147.043 58.6823 147.46 58.7618 147.878 58.9176C148.296 59.0734 148.677 59.3319 149.021 59.6932C149.366 60.0511 149.643 60.54 149.852 61.1598C150.061 61.7796 150.165 62.5568 150.165 63.4915C150.165 64.3963 150.079 65.2 149.906 65.9027C149.737 66.602 149.492 67.192 149.171 67.6726C148.852 68.1532 148.465 68.5178 148.007 68.7663C147.553 69.0149 147.039 69.1392 146.466 69.1392C145.896 69.1392 145.387 69.0265 144.94 68.8011C144.496 68.5724 144.131 68.2559 143.846 67.8516C143.564 67.4439 143.384 66.9716 143.304 66.4347H144.517C144.627 66.902 144.844 67.2881 145.168 67.593C145.497 67.8946 145.929 68.0455 146.466 68.0455C147.252 68.0455 147.871 67.7024 148.325 67.0163C148.783 66.3303 149.012 65.3608 149.012 64.108H148.932C148.746 64.3864 148.526 64.6267 148.271 64.8288C148.016 65.031 147.732 65.1868 147.421 65.2962C147.109 65.4055 146.778 65.4602 146.426 65.4602C145.843 65.4602 145.308 65.3161 144.82 65.0277C144.337 64.736 143.949 64.3366 143.657 63.8295C143.369 63.3191 143.225 62.7358 143.225 62.0795C143.225 61.4564 143.364 60.8864 143.642 60.3693C143.924 59.849 144.318 59.4347 144.825 59.1264C145.336 58.8182 145.936 58.669 146.625 58.679ZM146.625 59.7727C146.208 59.7727 145.831 59.8771 145.497 60.0859C145.165 60.2914 144.902 60.5698 144.706 60.9212C144.514 61.2692 144.418 61.6553 144.418 62.0795C144.418 62.5038 144.511 62.8899 144.696 63.2379C144.885 63.5826 145.142 63.8577 145.467 64.0632C145.795 64.2654 146.168 64.3665 146.585 64.3665C146.9 64.3665 147.194 64.3052 147.465 64.1825C147.737 64.0566 147.974 63.8859 148.176 63.6705C148.382 63.4517 148.543 63.2048 148.659 62.9297C148.775 62.6513 148.833 62.3613 148.833 62.0597C148.833 61.6619 148.736 61.2891 148.544 60.9411C148.355 60.593 148.093 60.3113 147.759 60.0959C147.427 59.8804 147.049 59.7727 146.625 59.7727ZM155.502 69.1392C154.918 69.1392 154.393 69.0232 153.926 68.7912C153.458 68.5592 153.084 68.241 152.802 67.8366C152.521 67.4323 152.366 66.9716 152.34 66.4545H153.533C153.579 66.9152 153.788 67.2964 154.159 67.598C154.534 67.8963 154.981 68.0455 155.502 68.0455C155.919 68.0455 156.291 67.9477 156.615 67.7521C156.944 67.5566 157.2 67.2881 157.386 66.9467C157.575 66.602 157.669 66.2126 157.669 65.7784C157.669 65.3343 157.572 64.9382 157.376 64.5902C157.184 64.2389 156.919 63.9621 156.581 63.7599C156.243 63.5578 155.856 63.455 155.422 63.4517C155.111 63.4484 154.791 63.4964 154.463 63.5959C154.135 63.692 153.864 63.8163 153.652 63.9688L152.499 63.8295L153.115 58.8182H158.405V59.9119H154.15L153.792 62.9148H153.851C154.06 62.7491 154.322 62.6115 154.637 62.5021C154.952 62.3928 155.28 62.3381 155.621 62.3381C156.244 62.3381 156.799 62.4872 157.287 62.7855C157.777 63.0805 158.162 63.4848 158.44 63.9986C158.722 64.5123 158.863 65.099 158.863 65.7585C158.863 66.4081 158.717 66.9882 158.425 67.4986C158.137 68.0057 157.739 68.4067 157.232 68.7017C156.725 68.9934 156.148 69.1392 155.502 69.1392Z" fill="#565656"/>
<path d="M49.1477 18V6.36364H51.2557V16.233H56.3807V18H49.1477ZM62.1261 18.1705C61.2739 18.1705 60.5352 17.983 59.9102 17.608C59.2852 17.233 58.8004 16.7083 58.4557 16.0341C58.1148 15.3598 57.9443 14.572 57.9443 13.6705C57.9443 12.7689 58.1148 11.9792 58.4557 11.3011C58.8004 10.6231 59.2852 10.0966 59.9102 9.72159C60.5352 9.34659 61.2739 9.15909 62.1261 9.15909C62.9784 9.15909 63.717 9.34659 64.342 9.72159C64.967 10.0966 65.45 10.6231 65.7909 11.3011C66.1356 11.9792 66.308 12.7689 66.308 13.6705C66.308 14.572 66.1356 15.3598 65.7909 16.0341C65.45 16.7083 64.967 17.233 64.342 17.608C63.717 17.983 62.9784 18.1705 62.1261 18.1705ZM62.1375 16.5227C62.5996 16.5227 62.986 16.3958 63.2966 16.142C63.6072 15.8845 63.8383 15.5398 63.9898 15.108C64.1451 14.6761 64.2227 14.1951 64.2227 13.6648C64.2227 13.1307 64.1451 12.6477 63.9898 12.2159C63.8383 11.7803 63.6072 11.4337 63.2966 11.1761C62.986 10.9186 62.5996 10.7898 62.1375 10.7898C61.664 10.7898 61.2701 10.9186 60.9557 11.1761C60.6451 11.4337 60.4121 11.7803 60.2568 12.2159C60.1053 12.6477 60.0295 13.1307 60.0295 13.6648C60.0295 14.1951 60.1053 14.6761 60.2568 15.108C60.4121 15.5398 60.6451 15.8845 60.9557 16.142C61.2701 16.3958 61.664 16.5227 62.1375 16.5227ZM72.0605 18.1705C71.1893 18.1705 70.4412 17.9792 69.8162 17.5966C69.195 17.214 68.7158 16.6856 68.3787 16.0114C68.0454 15.3333 67.8787 14.553 67.8787 13.6705C67.8787 12.7841 68.0491 12.0019 68.3901 11.3239C68.731 10.642 69.212 10.1117 69.8332 9.73295C70.4582 9.35038 71.1969 9.15909 72.0491 9.15909C72.7575 9.15909 73.3844 9.28977 73.9298 9.55114C74.4791 9.80871 74.9166 10.1742 75.2423 10.6477C75.5681 11.1174 75.7537 11.6667 75.7991 12.2955H73.8332C73.7537 11.875 73.5643 11.5246 73.2651 11.2443C72.9696 10.9602 72.5738 10.8182 72.0776 10.8182C71.6571 10.8182 71.2878 10.9318 70.9696 11.1591C70.6514 11.3826 70.4033 11.7045 70.2253 12.125C70.051 12.5455 69.9639 13.0492 69.9639 13.6364C69.9639 14.2311 70.051 14.7424 70.2253 15.1705C70.3995 15.5947 70.6438 15.9223 70.9582 16.1534C71.2764 16.3807 71.6495 16.4943 72.0776 16.4943C72.3806 16.4943 72.6514 16.4375 72.8901 16.3239C73.1325 16.2064 73.3351 16.0379 73.498 15.8182C73.6609 15.5985 73.7726 15.3314 73.8332 15.017H75.7991C75.7499 15.6345 75.5681 16.1818 75.2537 16.6591C74.9393 17.1326 74.5113 17.5038 73.9696 17.7727C73.4279 18.0379 72.7916 18.1705 72.0605 18.1705ZM80.1994 18.1761C79.6464 18.1761 79.1483 18.0777 78.7051 17.8807C78.2657 17.6799 77.9172 17.3845 77.6597 16.9943C77.4059 16.6042 77.279 16.1231 77.279 15.5511C77.279 15.0587 77.3699 14.6515 77.5517 14.3295C77.7335 14.0076 77.9816 13.75 78.296 13.5568C78.6104 13.3636 78.9646 13.2178 79.3585 13.1193C79.7563 13.017 80.1672 12.9432 80.5915 12.8977C81.1028 12.8447 81.5176 12.7973 81.8358 12.7557C82.154 12.7102 82.385 12.642 82.529 12.5511C82.6767 12.4564 82.7506 12.3106 82.7506 12.1136V12.0795C82.7506 11.6515 82.6237 11.3201 82.3699 11.0852C82.1161 10.8504 81.7506 10.733 81.2733 10.733C80.7695 10.733 80.3699 10.8428 80.0744 11.0625C79.7828 11.2822 79.5858 11.5417 79.4835 11.8409L77.5631 11.5682C77.7146 11.0379 77.9646 10.5947 78.3131 10.2386C78.6616 9.87879 79.0877 9.60985 79.5915 9.43182C80.0953 9.25 80.6521 9.15909 81.2619 9.15909C81.6824 9.15909 82.1009 9.20833 82.5176 9.30682C82.9343 9.4053 83.315 9.56818 83.6597 9.79545C84.0044 10.0189 84.2809 10.3239 84.4892 10.7102C84.7013 11.0966 84.8074 11.5795 84.8074 12.1591V18H82.8301V16.8011H82.7619C82.6369 17.0436 82.4608 17.2708 82.2335 17.483C82.01 17.6913 81.7278 17.8598 81.3869 17.9886C81.0498 18.1136 80.654 18.1761 80.1994 18.1761ZM80.7335 16.6648C81.1464 16.6648 81.5044 16.5833 81.8074 16.4205C82.1104 16.2538 82.3434 16.0341 82.5063 15.7614C82.6729 15.4886 82.7563 15.1913 82.7563 14.8693V13.8409C82.6919 13.8939 82.582 13.9432 82.4267 13.9886C82.2752 14.0341 82.1047 14.0739 81.9153 14.108C81.7259 14.142 81.5384 14.1723 81.3528 14.1989C81.1672 14.2254 81.0063 14.2481 80.8699 14.267C80.5631 14.3087 80.2884 14.3769 80.046 14.4716C79.8036 14.5663 79.6123 14.6989 79.4722 14.8693C79.332 15.036 79.2619 15.2519 79.2619 15.517C79.2619 15.8958 79.4002 16.1818 79.6767 16.375C79.9532 16.5682 80.3055 16.6648 80.7335 16.6648ZM91.4335 9.27273V10.8636H86.4165V9.27273H91.4335ZM87.6551 7.18182H89.7119V15.375C89.7119 15.6515 89.7536 15.8636 89.8369 16.0114C89.9241 16.1553 90.0377 16.2538 90.1778 16.3068C90.318 16.3598 90.4733 16.3864 90.6437 16.3864C90.7725 16.3864 90.89 16.3769 90.996 16.358C91.1059 16.339 91.1892 16.322 91.246 16.3068L91.5926 17.9148C91.4828 17.9527 91.3256 17.9943 91.121 18.0398C90.9203 18.0852 90.6741 18.1117 90.3824 18.1193C89.8672 18.1345 89.4032 18.0568 88.9903 17.8864C88.5775 17.7121 88.2498 17.4432 88.0074 17.0795C87.7687 16.7159 87.6513 16.2614 87.6551 15.7159V7.18182ZM93.3537 18V9.27273H95.4105V18H93.3537ZM94.3878 8.03409C94.062 8.03409 93.7817 7.92614 93.5469 7.71023C93.312 7.49053 93.1946 7.22727 93.1946 6.92045C93.1946 6.60985 93.312 6.34659 93.5469 6.13068C93.7817 5.91098 94.062 5.80114 94.3878 5.80114C94.7173 5.80114 94.9976 5.91098 95.2287 6.13068C95.4635 6.34659 95.581 6.60985 95.581 6.92045C95.581 7.22727 95.4635 7.49053 95.2287 7.71023C94.9976 7.92614 94.7173 8.03409 94.3878 8.03409ZM101.532 18.1705C100.68 18.1705 99.9415 17.983 99.3165 17.608C98.6915 17.233 98.2066 16.7083 97.8619 16.0341C97.521 15.3598 97.3506 14.572 97.3506 13.6705C97.3506 12.7689 97.521 11.9792 97.8619 11.3011C98.2066 10.6231 98.6915 10.0966 99.3165 9.72159C99.9415 9.34659 100.68 9.15909 101.532 9.15909C102.385 9.15909 103.123 9.34659 103.748 9.72159C104.373 10.0966 104.856 10.6231 105.197 11.3011C105.542 11.9792 105.714 12.7689 105.714 13.6705C105.714 14.572 105.542 15.3598 105.197 16.0341C104.856 16.7083 104.373 17.233 103.748 17.608C103.123 17.983 102.385 18.1705 101.532 18.1705ZM101.544 16.5227C102.006 16.5227 102.392 16.3958 102.703 16.142C103.013 15.8845 103.245 15.5398 103.396 15.108C103.551 14.6761 103.629 14.1951 103.629 13.6648C103.629 13.1307 103.551 12.6477 103.396 12.2159C103.245 11.7803 103.013 11.4337 102.703 11.1761C102.392 10.9186 102.006 10.7898 101.544 10.7898C101.07 10.7898 100.676 10.9186 100.362 11.1761C100.051 11.4337 99.8184 11.7803 99.6631 12.2159C99.5116 12.6477 99.4358 13.1307 99.4358 13.6648C99.4358 14.1951 99.5116 14.6761 99.6631 15.108C99.8184 15.5398 100.051 15.8845 100.362 16.142C100.676 16.3958 101.07 16.5227 101.544 16.5227ZM109.717 12.8864V18H107.66V9.27273H109.626V10.7557H109.728C109.929 10.267 110.249 9.87879 110.688 9.59091C111.132 9.30303 111.679 9.15909 112.33 9.15909C112.933 9.15909 113.457 9.28788 113.904 9.54545C114.355 9.80303 114.704 10.1761 114.95 10.6648C115.2 11.1534 115.323 11.7462 115.319 12.4432V18H113.262V12.7614C113.262 12.178 113.111 11.7216 112.808 11.392C112.508 11.0625 112.094 10.8977 111.563 10.8977C111.204 10.8977 110.883 10.9773 110.603 11.1364C110.327 11.2917 110.109 11.517 109.95 11.8125C109.794 12.108 109.717 12.4659 109.717 12.8864ZM118.877 18.125C118.532 18.125 118.237 18.0038 117.991 17.7614C117.744 17.5189 117.623 17.2235 117.627 16.875C117.623 16.5341 117.744 16.2424 117.991 16C118.237 15.7576 118.532 15.6364 118.877 15.6364C119.21 15.6364 119.5 15.7576 119.746 16C119.996 16.2424 120.123 16.5341 120.127 16.875C120.123 17.1061 120.063 17.3163 119.945 17.5057C119.832 17.6951 119.68 17.8466 119.491 17.9602C119.305 18.0701 119.1 18.125 118.877 18.125ZM118.877 11.8977C118.532 11.8977 118.237 11.7765 117.991 11.5341C117.744 11.2879 117.623 10.9924 117.627 10.6477C117.623 10.3068 117.744 10.0152 117.991 9.77273C118.237 9.52652 118.532 9.40341 118.877 9.40341C119.21 9.40341 119.5 9.52652 119.746 9.77273C119.996 10.0152 120.123 10.3068 120.127 10.6477C120.123 10.875 120.063 11.0833 119.945 11.2727C119.832 11.4621 119.68 11.6136 119.491 11.7273C119.305 11.8409 119.1 11.8977 118.877 11.8977Z" fill="black"/>
</svg>
