<svg width="80" height="80" viewBox="0 0 80 80" fill="none" xmlns="http://www.w3.org/2000/svg">
<path d="M29.6667 75.6667C22.6667 75.6667 16.3333 73 11.3333 68C6.66667 63.3334 4 56.6667 4 49.6667C4 43 6.66667 36.3334 11.6667 31.3334C16.3333 26.6667 23 24 29.6667 24C34.6667 24 39.3333 25.3334 43.6667 28L55.6667 15.6667H55C52 15.6667 49.3333 13 49.3333 10C49.3333 6.66671 52 4.33337 55 4.33337H69.3333C72.3333 4.33337 75 7.00004 75 10V24.3334C75 27.6667 72.3333 30 69.3333 30C66 30 63.6667 27.3334 63.6667 24.3334V24L51.6667 36.3334C58 46.3334 56.6667 59.6667 48 68.3334C43.3333 73 36.6667 75.6667 29.6667 75.6667ZM29.6667 27C23.6667 27 17.6667 29.3334 13.3333 33.6667C9 38 6.66667 43.6667 6.66667 50C6.66667 56.3334 9 62 13.3333 66.3334C17.6667 70.6667 23.3333 73 29.6667 73C36 73 41.6667 70.6667 46 66.3334C54 58.3334 55 46 48.6667 37C48.3333 36.3334 48.3333 35.6667 48.6667 35L64.3333 19.3334C64.6667 19 65.3333 18.6667 66 19C66.6667 19.3334 67 20 67 20.3334V24.6667C67 26.3334 68.3333 27.3334 69.6667 27.3334C71 27.3334 72.3333 26 72.3333 24.6667V10C72.3333 8.33337 71 7.33337 69.6667 7.33337H55.3333C53.6667 7.33337 52.6667 8.66671 52.6667 10C52.6667 11.6667 54 12.6667 55.3333 12.6667H59.6667C60.3333 12.6667 60.6667 13 61 13.6667C61.3333 14.3334 61 15 60.6667 15.3334L45 30.6667C44.6667 31.3334 43.6667 31.3334 43 31C39 28.3334 34.6667 27 29.6667 27ZM29.6667 67.3334C25 67.3334 20.6667 65.3334 17.3333 62C10.6667 55.3334 10.6667 44.3334 17.3333 37.3334C20.6667 34 25 32.3334 29.6667 32.3334C34.3333 32.3334 38.6667 34.3334 42 37.3334C45.3333 40.6667 47 45 47 49.6667C47 54.3334 45 58.6667 42 62C39 65.6667 34.3333 67.3334 29.6667 67.3334ZM29.6667 35.3334C26 35.3334 22.3333 37 19.3333 39.6667C13.6667 45.3334 13.6667 54.3334 19.3333 60C22 62.6667 25.6667 64.3334 29.6667 64.3334C33.6667 64.3334 37 62.6667 40 60C42.6667 57.3334 44.3333 53.6667 44.3333 49.6667C44.3333 45.6667 42.6667 42.3334 40 39.6667C37.3333 37 33.6667 35.3334 29.6667 35.3334Z" fill="#003366"/>
</svg>
