<svg width="400" height="60" viewBox="0 0 400 60" fill="none" xmlns="http://www.w3.org/2000/svg">
<path d="M51.1428 60H15.7666L51.1428 30.4761H86.519L51.1428 60Z" fill="#F5A524"/>
<path d="M38.1995 0H74.4385L38.1995 30.4763H1.96045L38.1995 0Z" fill="#F5A524"/>
<path d="M158.688 25.6842C158.688 27.4948 157.898 29.1922 156.316 30.7764C154.793 32.3607 152.362 33.6378 149.022 34.6077C145.742 35.5777 141.582 36.0626 136.544 36.0626H126.263V49.0599H113.96V15.2088H136.544C141.289 15.2088 145.332 15.6615 148.671 16.5668C152.01 17.472 154.5 18.7168 156.14 20.301C157.839 21.8853 158.688 23.6797 158.688 25.6842ZM136.017 30.5825C139.415 30.5825 141.934 30.1621 143.574 29.3215C145.214 28.4486 146.035 27.2361 146.035 25.6842C146.035 22.3864 142.695 20.7375 136.017 20.7375H126.263V30.5825H136.017Z" fill="#F5A524"/>
<path d="M176.21 26.3632C177.792 24.9406 179.843 23.8252 182.362 23.0169C184.939 22.2086 187.868 21.8045 191.149 21.8045V28.9335H187.898C184.031 28.9335 181.102 29.4347 179.11 30.437C177.177 31.4392 176.21 33.1851 176.21 35.6747V49.0599H163.908V22.1924H176.21V26.3632Z" fill="#F5A524"/>
<path d="M217.537 49.4964C212.851 49.4964 208.633 48.9306 204.884 47.799C201.134 46.635 198.176 45.0023 196.008 42.9007C193.899 40.7992 192.845 38.3743 192.845 35.6262C192.845 32.878 193.929 30.4531 196.096 28.3516C198.322 26.25 201.339 24.6335 205.147 23.5019C208.955 22.3379 213.202 21.756 217.889 21.756C222.576 21.756 226.823 22.3379 230.631 23.5019C234.439 24.6335 237.426 26.25 239.594 28.3516C241.82 30.4531 242.933 32.878 242.933 35.6262C242.933 38.3743 241.791 40.7992 239.506 42.9007C237.28 45.0023 234.234 46.635 230.367 47.799C226.559 48.9306 222.283 49.4964 217.537 49.4964ZM217.537 43.5797C219.764 43.5797 221.843 43.2887 223.777 42.7067C225.768 42.0925 227.35 41.1872 228.522 39.9909C229.693 38.7946 230.279 37.3397 230.279 35.6262C230.279 33.072 229.049 31.1159 226.589 29.758C224.187 28.3677 221.228 27.6726 217.713 27.6726C214.198 27.6726 211.24 28.3677 208.838 29.758C206.495 31.1159 205.323 33.072 205.323 35.6262C205.323 38.1803 206.465 40.1526 208.75 41.5428C211.093 42.9007 214.023 43.5797 217.537 43.5797Z" fill="#F5A524"/>
<path d="M260.745 43.6767H273.956V49.0599H248.442V11.0381H260.745V43.6767Z" fill="#F5A524"/>
<path d="M283.5 18.9916C281.332 18.9916 279.516 18.6198 278.051 17.8762C276.645 17.1002 275.942 16.1465 275.942 15.0149C275.942 13.8833 276.645 12.9456 278.051 12.202C279.516 11.4261 281.332 11.0381 283.5 11.0381C285.667 11.0381 287.454 11.4261 288.86 12.202C290.324 12.9456 291.057 13.8833 291.057 15.0149C291.057 16.1465 290.324 17.1002 288.86 17.8762C287.454 18.6198 285.667 18.9916 283.5 18.9916ZM289.563 22.1924V49.0599H277.26V22.1924H289.563Z" fill="#F5A524"/>
<path d="M325.18 21.8045C330.98 21.8045 335.666 22.8229 339.24 24.8598C342.814 26.8643 344.6 29.6772 344.6 33.2983V49.0599H332.298V34.2197C332.298 32.0859 331.331 30.4531 329.398 29.3215C327.465 28.1576 324.829 27.5756 321.489 27.5756C318.092 27.5756 315.397 28.1576 313.405 29.3215C311.472 30.4531 310.505 32.0859 310.505 34.2197V49.0599H298.203V22.1924H310.505V25.5387C312.145 24.3748 314.225 23.4695 316.744 22.8229C319.322 22.1439 322.134 21.8045 325.18 21.8045Z" fill="#F5A524"/>
<path d="M398.04 35.0442C398.04 36.0141 397.922 36.8871 397.688 37.663H362.099C362.392 39.6029 363.622 41.1225 365.79 42.2218C367.957 43.321 370.623 43.8707 373.786 43.8707C378.356 43.8707 381.607 42.7876 383.54 40.6214H396.809C395.403 43.2079 392.709 45.3418 388.725 47.023C384.741 48.6719 379.85 49.4964 374.05 49.4964C369.363 49.4964 365.145 48.9306 361.396 47.799C357.705 46.635 354.805 45.0023 352.696 42.9007C350.646 40.7992 349.621 38.3743 349.621 35.6262C349.621 32.8457 350.646 30.4046 352.696 28.3031C354.747 26.2015 357.617 24.585 361.308 23.4534C364.999 22.3218 369.246 21.756 374.05 21.756C378.678 21.756 382.808 22.3056 386.44 23.4049C390.131 24.5041 392.972 26.0722 394.964 28.1091C397.014 30.1136 398.04 32.4253 398.04 35.0442ZM385.298 33.1043C385.239 31.3584 384.097 29.9682 381.871 28.9335C379.645 27.8666 376.92 27.3331 373.698 27.3331C370.652 27.3331 368.074 27.8504 365.965 28.885C363.915 29.8873 362.655 31.2937 362.187 33.1043H385.298Z" fill="#F5A524"/>
</svg>
