<svg width="42" height="42" viewBox="0 0 42 42" fill="none" xmlns="http://www.w3.org/2000/svg">
<path d="M29.3332 15.8335C28.7068 16.1053 28.0444 16.2849 27.3665 16.3668C28.0816 15.9396 28.6176 15.2675 28.8748 14.4752C28.2028 14.8752 27.4671 15.1571 26.6998 15.3085C26.187 14.7523 25.504 14.3821 24.758 14.2559C24.012 14.1297 23.2453 14.2546 22.578 14.6112C21.9107 14.9677 21.3806 15.5356 21.0709 16.2259C20.7611 16.9161 20.6892 17.6897 20.8665 18.4252C19.5077 18.3564 18.1785 18.0026 16.9654 17.3867C15.7522 16.7708 14.6822 15.9066 13.8248 14.8502C13.5241 15.3753 13.3661 15.97 13.3665 16.5752C13.3654 17.1372 13.5034 17.6907 13.768 18.1865C14.0326 18.6823 14.4157 19.1049 14.8832 19.4168C14.3398 19.4021 13.8081 19.2563 13.3332 18.9918V19.0335C13.3372 19.8209 13.6132 20.5828 14.1143 21.1901C14.6154 21.7975 15.3109 22.2132 16.0832 22.3668C15.7859 22.4573 15.4772 22.505 15.1665 22.5085C14.9514 22.506 14.7369 22.4865 14.5248 22.4502C14.7448 23.1275 15.1704 23.7195 15.7424 24.1436C16.3144 24.5678 17.0045 24.8031 17.7165 24.8168C16.5142 25.7629 15.0297 26.2792 13.4998 26.2835C13.2213 26.2844 12.943 26.2677 12.6665 26.2335C14.2285 27.2421 16.0488 27.7774 17.9082 27.7752C19.1912 27.7885 20.4641 27.546 21.6524 27.0619C22.8407 26.5778 23.9207 25.8617 24.8292 24.9556C25.7377 24.0494 26.4565 22.9713 26.9436 21.7843C27.4308 20.5972 27.6765 19.3249 27.6665 18.0418C27.6665 17.9002 27.6665 17.7502 27.6665 17.6002C28.3204 17.1125 28.8844 16.5147 29.3332 15.8335Z" fill="black"/>
<rect x="1" y="1" width="40" height="40" stroke="black"/>
</svg>
