<svg width="167" height="52" viewBox="0 0 167 52" fill="none" xmlns="http://www.w3.org/2000/svg">
<path d="M12.1904 1.5C6.49711 1.5 1.88128 6.07973 1.88128 11.7296C1.88128 13.6623 2.42184 15.4698 3.36061 17.0118L1.5 22.5L7.20769 20.6868C8.68463 21.497 10.3832 21.9592 12.1904 21.9592C17.8845 21.9592 22.5 17.3789 22.5 11.7296C22.5 6.07973 17.8845 1.5 12.1904 1.5ZM17.3168 15.6145C17.0742 16.2158 15.9773 16.7645 15.4934 16.7898C15.0099 16.8154 14.9961 17.1645 12.3602 16.0194C9.72469 14.8741 8.13905 12.0893 8.01403 11.9099C7.88892 11.7312 6.99309 10.4546 7.04142 9.16983C7.09008 7.88484 7.79362 7.27861 8.04473 7.02647C8.29556 6.77395 8.58314 6.72872 8.75873 6.72586C8.9663 6.72248 9.10073 6.71967 9.25434 6.72534C9.40781 6.73116 9.63834 6.69323 9.83794 7.22405C10.0374 7.75481 10.515 9.05934 10.576 9.19228C10.6371 9.32536 10.6748 9.47944 10.5808 9.6503C10.4865 9.82153 10.4382 9.9285 10.3014 10.0761C10.1638 10.2236 10.012 10.4062 9.88927 10.519C9.75239 10.6439 9.60942 10.7802 9.75333 11.0472C9.89714 11.3141 10.3933 12.1889 11.1492 12.9098C12.1207 13.8366 12.9585 14.144 13.2163 14.2841C13.4748 14.4249 13.6291 14.4092 13.7894 14.2405C13.949 14.0718 14.4756 13.5024 14.6611 13.2482C14.8465 12.9933 15.0202 13.0432 15.2584 13.1391C15.4964 13.2352 16.7657 13.9151 17.0243 14.0555C17.2826 14.1956 17.4552 14.2678 17.517 14.379C17.5787 14.4905 17.5592 15.0132 17.3168 15.6145Z" fill="#003366"/>
<path d="M52.0568 43.2102V36.6477H53.1705V43.2102H52.0568ZM49.3324 40.4858V39.3722H55.8949V40.4858H49.3324ZM61.724 34.679C62.1416 34.6823 62.5592 34.7618 62.9768 34.9176C63.3944 35.0734 63.7756 35.3319 64.1203 35.6932C64.465 36.0511 64.7417 36.54 64.9505 37.1598C65.1593 37.7796 65.2637 38.5568 65.2637 39.4915C65.2637 40.3963 65.1776 41.2 65.0052 41.9027C64.8362 42.602 64.5909 43.192 64.2694 43.6726C63.9512 44.1532 63.5635 44.5178 63.1061 44.7663C62.652 45.0149 62.1383 45.1392 61.5649 45.1392C60.9948 45.1392 60.486 45.0265 60.0386 44.8011C59.5945 44.5724 59.2299 44.2559 58.9449 43.8516C58.6631 43.4439 58.4825 42.9716 58.4029 42.4347H59.616C59.7254 42.902 59.9425 43.2881 60.2673 43.593C60.5954 43.8946 61.0279 44.0455 61.5649 44.0455C62.3504 44.0455 62.9702 43.7024 63.4243 43.0163C63.8816 42.3303 64.1103 41.3608 64.1103 40.108H64.0308C63.8452 40.3864 63.6248 40.6267 63.3696 40.8288C63.1144 41.031 62.831 41.1868 62.5194 41.2962C62.2079 41.4055 61.8764 41.4602 61.5251 41.4602C60.9418 41.4602 60.4065 41.3161 59.9193 41.0277C59.4354 40.736 59.0476 40.3366 58.7559 39.8295C58.4676 39.3191 58.3234 38.7358 58.3234 38.0795C58.3234 37.4564 58.4626 36.8864 58.741 36.3693C59.0227 35.849 59.4172 35.4347 59.9243 35.1264C60.4347 34.8182 61.0346 34.669 61.724 34.679ZM61.724 35.7727C61.3064 35.7727 60.9302 35.8771 60.5954 36.0859C60.264 36.2914 60.0005 36.5698 59.8049 36.9212C59.6127 37.2692 59.5166 37.6553 59.5166 38.0795C59.5166 38.5038 59.6094 38.8899 59.795 39.2379C59.9839 39.5826 60.2408 39.8577 60.5656 40.0632C60.8937 40.2654 61.2666 40.3665 61.6842 40.3665C61.9991 40.3665 62.2924 40.3052 62.5642 40.1825C62.8359 40.0566 63.0729 39.8859 63.2751 39.6705C63.4806 39.4517 63.6413 39.2048 63.7574 38.9297C63.8734 38.6513 63.9314 38.3613 63.9314 38.0597C63.9314 37.6619 63.8352 37.2891 63.643 36.9411C63.4541 36.593 63.1922 36.3113 62.8575 36.0959C62.5261 35.8804 62.1482 35.7727 61.724 35.7727ZM67.4188 45V44.1051L70.7796 40.4261C71.174 39.9953 71.4988 39.6207 71.754 39.3026C72.0093 38.9811 72.1982 38.6795 72.3208 38.3977C72.4468 38.1127 72.5097 37.8144 72.5097 37.5028C72.5097 37.1449 72.4236 36.835 72.2512 36.5732C72.0822 36.3113 71.8502 36.1091 71.5552 35.9666C71.2602 35.8241 70.9288 35.7528 70.5609 35.7528C70.1698 35.7528 69.8284 35.834 69.5367 35.9964C69.2484 36.1555 69.0246 36.3793 68.8656 36.6676C68.7098 36.956 68.6319 37.294 68.6319 37.6818H67.4586C67.4586 37.0852 67.5961 36.5616 67.8712 36.1108C68.1463 35.66 68.5209 35.3087 68.9948 35.0568C69.4721 34.8049 70.0074 34.679 70.6006 34.679C71.1972 34.679 71.7259 34.8049 72.1866 35.0568C72.6473 35.3087 73.0085 35.6484 73.2704 36.076C73.5322 36.5036 73.6631 36.9792 73.6631 37.5028C73.6631 37.8774 73.5952 38.2436 73.4593 38.6016C73.3267 38.9562 73.0947 39.3523 72.7633 39.7898C72.4352 40.224 71.9794 40.7543 71.3961 41.3807L69.1092 43.8267V43.9062H73.8421V45H67.4188ZM79.5357 45.1392C78.8795 45.1392 78.2945 45.0265 77.7808 44.8011C77.2703 44.5758 76.8643 44.2625 76.5627 43.8615C76.2644 43.4571 76.102 42.9882 76.0755 42.4545H77.3283C77.3549 42.7827 77.4675 43.0661 77.6664 43.3047C77.8653 43.54 78.1255 43.7223 78.4469 43.8516C78.7684 43.9808 79.1247 44.0455 79.5158 44.0455C79.9533 44.0455 80.3411 43.9692 80.6792 43.8168C81.0173 43.6643 81.2824 43.4522 81.4746 43.1804C81.6669 42.9086 81.763 42.5938 81.763 42.2358C81.763 41.8613 81.6702 41.5315 81.4846 41.2464C81.299 40.9581 81.0272 40.7327 80.6692 40.5703C80.3113 40.4079 79.8738 40.3267 79.3567 40.3267H78.5414V39.233H79.3567C79.7611 39.233 80.1157 39.16 80.4207 39.0142C80.7289 38.8684 80.9692 38.6629 81.1415 38.3977C81.3172 38.1326 81.405 37.821 81.405 37.4631C81.405 37.1184 81.3288 36.8184 81.1764 36.5632C81.0239 36.308 80.8085 36.1091 80.53 35.9666C80.2549 35.8241 79.9301 35.7528 79.5556 35.7528C79.2043 35.7528 78.8728 35.8175 78.5613 35.9467C78.2531 36.0727 78.0012 36.2566 77.8056 36.4986C77.6101 36.7372 77.504 37.0256 77.4874 37.3636H76.2942C76.3141 36.83 76.4749 36.3627 76.7765 35.9616C77.0781 35.5573 77.4725 35.2424 77.9597 35.017C78.4503 34.7917 78.9888 34.679 79.5755 34.679C80.2052 34.679 80.7455 34.8066 81.1962 35.0618C81.647 35.3137 81.9933 35.6468 82.2353 36.0611C82.4772 36.4754 82.5982 36.9228 82.5982 37.4034C82.5982 37.9768 82.4474 38.4657 82.1458 38.87C81.8475 39.2744 81.4415 39.5545 80.9278 39.7102V39.7898C81.5708 39.8958 82.0729 40.1693 82.4342 40.6101C82.7954 41.0476 82.9761 41.5895 82.9761 42.2358C82.9761 42.7893 82.8253 43.2865 82.5237 43.7273C82.2254 44.1648 81.8177 44.5095 81.3006 44.7614C80.7836 45.0133 80.1953 45.1392 79.5357 45.1392ZM92.9265 34.8182V45H91.6935V36.1108H91.6339L89.1481 37.7614V36.5085L91.6935 34.8182H92.9265ZM96.0548 45V44.1051L99.4156 40.4261C99.81 39.9953 100.135 39.6207 100.39 39.3026C100.645 38.9811 100.834 38.6795 100.957 38.3977C101.083 38.1127 101.146 37.8144 101.146 37.5028C101.146 37.1449 101.059 36.835 100.887 36.5732C100.718 36.3113 100.486 36.1091 100.191 35.9666C99.8961 35.8241 99.5647 35.7528 99.1968 35.7528C98.8057 35.7528 98.4643 35.834 98.1727 35.9964C97.8843 36.1555 97.6606 36.3793 97.5015 36.6676C97.3457 36.956 97.2678 37.294 97.2678 37.6818H96.0945C96.0945 37.0852 96.2321 36.5616 96.5072 36.1108C96.7823 35.66 97.1568 35.3087 97.6308 35.0568C98.108 34.8049 98.6433 34.679 99.2366 34.679C99.8332 34.679 100.362 34.8049 100.823 35.0568C101.283 35.3087 101.644 35.6484 101.906 36.076C102.168 36.5036 102.299 36.9792 102.299 37.5028C102.299 37.8774 102.231 38.2436 102.095 38.6016C101.963 38.9562 101.731 39.3523 101.399 39.7898C101.071 40.224 100.615 40.7543 100.032 41.3807L97.7451 43.8267V43.9062H102.478V45H96.0548ZM108.172 45.1392C107.515 45.1392 106.93 45.0265 106.417 44.8011C105.906 44.5758 105.5 44.2625 105.199 43.8615C104.9 43.4571 104.738 42.9882 104.711 42.4545H105.964C105.991 42.7827 106.103 43.0661 106.302 43.3047C106.501 43.54 106.761 43.7223 107.083 43.8516C107.404 43.9808 107.761 44.0455 108.152 44.0455C108.589 44.0455 108.977 43.9692 109.315 43.8168C109.653 43.6643 109.918 43.4522 110.111 43.1804C110.303 42.9086 110.399 42.5938 110.399 42.2358C110.399 41.8613 110.306 41.5315 110.121 41.2464C109.935 40.9581 109.663 40.7327 109.305 40.5703C108.947 40.4079 108.51 40.3267 107.993 40.3267H107.177V39.233H107.993C108.397 39.233 108.752 39.16 109.057 39.0142C109.365 38.8684 109.605 38.6629 109.777 38.3977C109.953 38.1326 110.041 37.821 110.041 37.4631C110.041 37.1184 109.965 36.8184 109.812 36.5632C109.66 36.308 109.444 36.1091 109.166 35.9666C108.891 35.8241 108.566 35.7528 108.192 35.7528C107.84 35.7528 107.509 35.8175 107.197 35.9467C106.889 36.0727 106.637 36.2566 106.442 36.4986C106.246 36.7372 106.14 37.0256 106.123 37.3636H104.93C104.95 36.83 105.111 36.3627 105.412 35.9616C105.714 35.5573 106.108 35.2424 106.596 35.017C107.086 34.7917 107.625 34.679 108.211 34.679C108.841 34.679 109.381 34.8066 109.832 35.0618C110.283 35.3137 110.629 35.6468 110.871 36.0611C111.113 36.4754 111.234 36.9228 111.234 37.4034C111.234 37.9768 111.083 38.4657 110.782 38.87C110.483 39.2744 110.077 39.5545 109.564 39.7102V39.7898C110.207 39.8958 110.709 40.1693 111.07 40.6101C111.431 41.0476 111.612 41.5895 111.612 42.2358C111.612 42.7893 111.461 43.2865 111.16 43.7273C110.861 44.1648 110.454 44.5095 109.937 44.7614C109.42 45.0133 108.831 45.1392 108.172 45.1392ZM113.607 42.9119V41.8977L118.081 34.8182H118.817V36.3892H118.32L114.939 41.7386V41.8182H120.965V42.9119H113.607ZM118.399 45V42.6037V42.1314V34.8182H119.573V45H118.399ZM122.789 42.9119V41.8977L127.264 34.8182H127.999V36.3892H127.502L124.122 41.7386V41.8182H130.147V42.9119H122.789ZM127.582 45V42.6037V42.1314V34.8182H128.755V45H127.582ZM135.591 45.1392C135.173 45.1326 134.756 45.053 134.338 44.9006C133.92 44.7481 133.539 44.4912 133.195 44.13C132.85 43.7654 132.573 43.2732 132.364 42.6534C132.156 42.0303 132.051 41.2481 132.051 40.3068C132.051 39.4053 132.136 38.6065 132.305 37.9105C132.474 37.2112 132.719 36.6229 133.04 36.1456C133.362 35.665 133.75 35.3004 134.204 35.0518C134.661 34.8033 135.177 34.679 135.75 34.679C136.32 34.679 136.827 34.7933 137.271 35.022C137.719 35.2474 138.083 35.5623 138.365 35.9666C138.647 36.371 138.829 36.8366 138.912 37.3636H137.699C137.586 36.9062 137.367 36.5268 137.043 36.2251C136.718 35.9235 136.287 35.7727 135.75 35.7727C134.961 35.7727 134.34 36.1158 133.886 36.8018C133.435 37.4879 133.208 38.4508 133.205 39.6903H133.284C133.47 39.4086 133.69 39.1683 133.945 38.9695C134.204 38.7673 134.489 38.6115 134.8 38.5021C135.112 38.3928 135.442 38.3381 135.79 38.3381C136.373 38.3381 136.907 38.4839 137.391 38.7756C137.875 39.0639 138.262 39.4633 138.554 39.9737C138.846 40.4808 138.991 41.0625 138.991 41.7188C138.991 42.3485 138.851 42.9252 138.569 43.4489C138.287 43.9692 137.891 44.3835 137.381 44.6918C136.874 44.9967 136.277 45.1458 135.591 45.1392ZM135.591 44.0455C136.009 44.0455 136.383 43.9411 136.714 43.7322C137.049 43.5234 137.313 43.2434 137.505 42.892C137.701 42.5407 137.798 42.1496 137.798 41.7188C137.798 41.2978 137.704 40.915 137.515 40.5703C137.329 40.2223 137.072 39.9455 136.744 39.7401C136.42 39.5346 136.048 39.4318 135.631 39.4318C135.316 39.4318 135.022 39.4948 134.751 39.6207C134.479 39.7434 134.24 39.9124 134.035 40.1278C133.833 40.3433 133.674 40.5902 133.558 40.8686C133.442 41.1437 133.384 41.4337 133.384 41.7386C133.384 42.143 133.478 42.5208 133.667 42.8722C133.859 43.2235 134.121 43.5069 134.452 43.7223C134.787 43.9377 135.167 44.0455 135.591 44.0455ZM144.468 45.1392C143.719 45.1392 143.081 44.9354 142.554 44.5277C142.027 44.1167 141.624 43.5218 141.345 42.7429C141.067 41.9607 140.928 41.0161 140.928 39.9091C140.928 38.8087 141.067 37.8691 141.345 37.0902C141.627 36.308 142.031 35.7114 142.558 35.3004C143.089 34.8861 143.725 34.679 144.468 34.679C145.21 34.679 145.845 34.8861 146.372 35.3004C146.902 35.7114 147.306 36.308 147.585 37.0902C147.866 37.8691 148.007 38.8087 148.007 39.9091C148.007 41.0161 147.868 41.9607 147.59 42.7429C147.311 43.5218 146.909 44.1167 146.382 44.5277C145.855 44.9354 145.217 45.1392 144.468 45.1392ZM144.468 44.0455C145.21 44.0455 145.787 43.6875 146.198 42.9716C146.609 42.2557 146.814 41.2348 146.814 39.9091C146.814 39.0275 146.72 38.2768 146.531 37.657C146.345 37.0372 146.077 36.5649 145.725 36.2401C145.377 35.9152 144.958 35.7528 144.468 35.7528C143.732 35.7528 143.157 36.1158 142.742 36.8416C142.328 37.5642 142.121 38.5866 142.121 39.9091C142.121 40.7907 142.214 41.5398 142.399 42.1562C142.585 42.7727 142.852 43.2417 143.2 43.5632C143.551 43.8847 143.974 44.0455 144.468 44.0455ZM153.338 34.679C153.756 34.6823 154.173 34.7618 154.591 34.9176C155.008 35.0734 155.39 35.3319 155.734 35.6932C156.079 36.0511 156.356 36.54 156.565 37.1598C156.773 37.7796 156.878 38.5568 156.878 39.4915C156.878 40.3963 156.792 41.2 156.619 41.9027C156.45 42.602 156.205 43.192 155.883 43.6726C155.565 44.1532 155.178 44.5178 154.72 44.7663C154.266 45.0149 153.752 45.1392 153.179 45.1392C152.609 45.1392 152.1 45.0265 151.653 44.8011C151.209 44.5724 150.844 44.2559 150.559 43.8516C150.277 43.4439 150.097 42.9716 150.017 42.4347H151.23C151.339 42.902 151.557 43.2881 151.881 43.593C152.209 43.8946 152.642 44.0455 153.179 44.0455C153.964 44.0455 154.584 43.7024 155.038 43.0163C155.496 42.3303 155.724 41.3608 155.724 40.108H155.645C155.459 40.3864 155.239 40.6267 154.984 40.8288C154.728 41.031 154.445 41.1868 154.133 41.2962C153.822 41.4055 153.49 41.4602 153.139 41.4602C152.556 41.4602 152.021 41.3161 151.533 41.0277C151.049 40.736 150.662 40.3366 150.37 39.8295C150.082 39.3191 149.937 38.7358 149.937 38.0795C149.937 37.4564 150.077 36.8864 150.355 36.3693C150.637 35.849 151.031 35.4347 151.538 35.1264C152.049 34.8182 152.649 34.669 153.338 34.679ZM153.338 35.7727C152.92 35.7727 152.544 35.8771 152.209 36.0859C151.878 36.2914 151.615 36.5698 151.419 36.9212C151.227 37.2692 151.131 37.6553 151.131 38.0795C151.131 38.5038 151.223 38.8899 151.409 39.2379C151.598 39.5826 151.855 39.8577 152.18 40.0632C152.508 40.2654 152.881 40.3665 153.298 40.3665C153.613 40.3665 153.906 40.3052 154.178 40.1825C154.45 40.0566 154.687 39.8859 154.889 39.6705C155.095 39.4517 155.255 39.2048 155.371 38.9297C155.487 38.6513 155.545 38.3613 155.545 38.0597C155.545 37.6619 155.449 37.2891 155.257 36.9411C155.068 36.593 154.806 36.3113 154.472 36.0959C154.14 35.8804 153.762 35.7727 153.338 35.7727ZM162.294 45.1392C161.611 45.1392 161.008 45.0182 160.485 44.7763C159.964 44.531 159.558 44.1946 159.267 43.767C158.975 43.3362 158.831 42.8456 158.834 42.2955C158.831 41.8646 158.915 41.4669 159.088 41.1023C159.26 40.7344 159.495 40.4278 159.794 40.1825C160.095 39.9339 160.432 39.7765 160.803 39.7102V39.6506C160.316 39.5246 159.928 39.2512 159.639 38.8303C159.351 38.406 159.209 37.9238 159.212 37.3835C159.209 36.8665 159.339 36.4041 159.605 35.9964C159.87 35.5888 160.234 35.2673 160.698 35.032C161.166 34.7966 161.698 34.679 162.294 34.679C162.884 34.679 163.411 34.7966 163.875 35.032C164.339 35.2673 164.704 35.5888 164.969 35.9964C165.237 36.4041 165.373 36.8665 165.377 37.3835C165.373 37.9238 165.226 38.406 164.934 38.8303C164.646 39.2512 164.263 39.5246 163.786 39.6506V39.7102C164.154 39.7765 164.485 39.9339 164.78 40.1825C165.075 40.4278 165.31 40.7344 165.486 41.1023C165.662 41.4669 165.751 41.8646 165.754 42.2955C165.751 42.8456 165.602 43.3362 165.307 43.767C165.015 44.1946 164.609 44.531 164.089 44.7763C163.572 45.0182 162.974 45.1392 162.294 45.1392ZM162.294 44.0455C162.755 44.0455 163.153 43.9709 163.487 43.8217C163.822 43.6726 164.081 43.4621 164.263 43.1903C164.445 42.9186 164.538 42.6004 164.541 42.2358C164.538 41.8513 164.439 41.5116 164.243 41.2166C164.048 40.9216 163.781 40.6896 163.443 40.5206C163.108 40.3516 162.725 40.267 162.294 40.267C161.86 40.267 161.472 40.3516 161.131 40.5206C160.793 40.6896 160.526 40.9216 160.33 41.2166C160.138 41.5116 160.044 41.8513 160.047 42.2358C160.044 42.6004 160.132 42.9186 160.311 43.1903C160.493 43.4621 160.753 43.6726 161.091 43.8217C161.429 43.9709 161.83 44.0455 162.294 44.0455ZM162.294 39.2131C162.659 39.2131 162.982 39.1402 163.264 38.9943C163.549 38.8485 163.772 38.6446 163.935 38.3828C164.097 38.121 164.18 37.8144 164.183 37.4631C164.18 37.1184 164.099 36.8184 163.94 36.5632C163.781 36.3047 163.56 36.1058 163.279 35.9666C162.997 35.8241 162.669 35.7528 162.294 35.7528C161.913 35.7528 161.58 35.8241 161.295 35.9666C161.01 36.1058 160.79 36.3047 160.634 36.5632C160.478 36.8184 160.402 37.1184 160.405 37.4631C160.402 37.8144 160.48 38.121 160.639 38.3828C160.801 38.6446 161.025 38.8485 161.31 38.9943C161.595 39.1402 161.923 39.2131 162.294 39.2131Z" fill="#565656"/>
<path d="M51.5966 18L48.3125 6.36364H50.5795L52.6761 14.9148H52.7841L55.0227 6.36364H57.0852L59.3295 14.9205H59.4318L61.5284 6.36364H63.7955L60.5114 18H58.4318L56.1023 9.83523H56.0114L53.6761 18H51.5966ZM67.423 12.8864V18H65.3662V6.36364H67.3776V10.7557H67.4798C67.6844 10.2633 68.0007 9.875 68.4287 9.59091C68.8605 9.30303 69.4098 9.15909 70.0764 9.15909C70.6825 9.15909 71.2109 9.28598 71.6616 9.53977C72.1124 9.79356 72.4609 10.1648 72.7071 10.6534C72.9571 11.142 73.0821 11.7386 73.0821 12.4432V18H71.0253V12.7614C71.0253 12.1742 70.8738 11.7178 70.5707 11.392C70.2715 11.0625 69.851 10.8977 69.3094 10.8977C68.9457 10.8977 68.62 10.9773 68.3321 11.1364C68.048 11.2917 67.8245 11.517 67.6616 11.8125C67.5026 12.108 67.423 12.4659 67.423 12.8864ZM77.8901 18.1761C77.337 18.1761 76.8389 18.0777 76.3957 17.8807C75.9563 17.6799 75.6079 17.3845 75.3503 16.9943C75.0965 16.6042 74.9696 16.1231 74.9696 15.5511C74.9696 15.0587 75.0605 14.6515 75.2423 14.3295C75.4241 14.0076 75.6723 13.75 75.9866 13.5568C76.301 13.3636 76.6552 13.2178 77.0491 13.1193C77.4469 13.017 77.8579 12.9432 78.2821 12.8977C78.7935 12.8447 79.2082 12.7973 79.5264 12.7557C79.8446 12.7102 80.0757 12.642 80.2196 12.5511C80.3673 12.4564 80.4412 12.3106 80.4412 12.1136V12.0795C80.4412 11.6515 80.3143 11.3201 80.0605 11.0852C79.8067 10.8504 79.4412 10.733 78.9639 10.733C78.4601 10.733 78.0605 10.8428 77.7651 11.0625C77.4734 11.2822 77.2764 11.5417 77.1741 11.8409L75.2537 11.5682C75.4052 11.0379 75.6552 10.5947 76.0037 10.2386C76.3522 9.87879 76.7783 9.60985 77.2821 9.43182C77.7859 9.25 78.3427 9.15909 78.9526 9.15909C79.373 9.15909 79.7916 9.20833 80.2082 9.30682C80.6249 9.4053 81.0056 9.56818 81.3503 9.79545C81.695 10.0189 81.9715 10.3239 82.1798 10.7102C82.392 11.0966 82.498 11.5795 82.498 12.1591V18H80.5207V16.8011H80.4526C80.3276 17.0436 80.1514 17.2708 79.9241 17.483C79.7007 17.6913 79.4185 17.8598 79.0776 17.9886C78.7404 18.1136 78.3446 18.1761 77.8901 18.1761ZM78.4241 16.6648C78.837 16.6648 79.195 16.5833 79.498 16.4205C79.801 16.2538 80.034 16.0341 80.1969 15.7614C80.3635 15.4886 80.4469 15.1913 80.4469 14.8693V13.8409C80.3825 13.8939 80.2726 13.9432 80.1173 13.9886C79.9658 14.0341 79.7954 14.0739 79.606 14.108C79.4166 14.142 79.2291 14.1723 79.0435 14.1989C78.8579 14.2254 78.6969 14.2481 78.5605 14.267C78.2537 14.3087 77.9791 14.3769 77.7366 14.4716C77.4942 14.5663 77.3029 14.6989 77.1628 14.8693C77.0226 15.036 76.9526 15.2519 76.9526 15.517C76.9526 15.8958 77.0908 16.1818 77.3673 16.375C77.6438 16.5682 77.9961 16.6648 78.4241 16.6648ZM89.1241 9.27273V10.8636H84.1071V9.27273H89.1241ZM85.3457 7.18182H87.4026V15.375C87.4026 15.6515 87.4442 15.8636 87.5276 16.0114C87.6147 16.1553 87.7283 16.2538 87.8685 16.3068C88.0086 16.3598 88.1639 16.3864 88.3344 16.3864C88.4632 16.3864 88.5806 16.3769 88.6866 16.358C88.7965 16.339 88.8798 16.322 88.9366 16.3068L89.2832 17.9148C89.1734 17.9527 89.0162 17.9943 88.8116 18.0398C88.6109 18.0852 88.3647 18.1117 88.073 18.1193C87.5579 18.1345 87.0938 18.0568 86.681 17.8864C86.2681 17.7121 85.9404 17.4432 85.698 17.0795C85.4594 16.7159 85.3419 16.2614 85.3457 15.7159V7.18182ZM97.817 11.5795L95.942 11.7841C95.889 11.5947 95.7962 11.4167 95.6636 11.25C95.5348 11.0833 95.3606 10.9489 95.1409 10.8466C94.9212 10.7443 94.6523 10.6932 94.3341 10.6932C93.9061 10.6932 93.5462 10.786 93.2545 10.9716C92.9667 11.1572 92.8246 11.3977 92.8284 11.6932C92.8246 11.947 92.9174 12.1534 93.1068 12.3125C93.3 12.4716 93.6182 12.6023 94.0614 12.7045L95.55 13.0227C96.3758 13.2008 96.9894 13.483 97.3909 13.8693C97.7962 14.2557 98.0008 14.7614 98.0045 15.3864C98.0008 15.9356 97.8398 16.4205 97.5216 16.8409C97.2072 17.2576 96.7697 17.5833 96.2091 17.8182C95.6485 18.053 95.0045 18.1705 94.2773 18.1705C93.2091 18.1705 92.3492 17.947 91.6977 17.5C91.0462 17.0492 90.658 16.4223 90.533 15.6193L92.5386 15.4261C92.6295 15.8201 92.8227 16.1174 93.1182 16.3182C93.4136 16.5189 93.7981 16.6193 94.2716 16.6193C94.7602 16.6193 95.1523 16.5189 95.4477 16.3182C95.747 16.1174 95.8966 15.8693 95.8966 15.5739C95.8966 15.3239 95.8 15.1174 95.6068 14.9545C95.4174 14.7917 95.122 14.6667 94.7205 14.5795L93.2318 14.267C92.3947 14.0928 91.7754 13.7992 91.3739 13.3864C90.9723 12.9697 90.7735 12.4432 90.7773 11.8068C90.7735 11.2689 90.9193 10.803 91.2148 10.4091C91.514 10.0114 91.9288 9.70455 92.4591 9.48864C92.9932 9.26894 93.6087 9.15909 94.3057 9.15909C95.3284 9.15909 96.1333 9.37689 96.7205 9.8125C97.3114 10.2481 97.6769 10.8371 97.817 11.5795ZM102.412 18.1761C101.859 18.1761 101.361 18.0777 100.918 17.8807C100.478 17.6799 100.13 17.3845 99.8722 16.9943C99.6184 16.6042 99.4915 16.1231 99.4915 15.5511C99.4915 15.0587 99.5824 14.6515 99.7642 14.3295C99.946 14.0076 100.194 13.75 100.509 13.5568C100.823 13.3636 101.177 13.2178 101.571 13.1193C101.969 13.017 102.38 12.9432 102.804 12.8977C103.315 12.8447 103.73 12.7973 104.048 12.7557C104.366 12.7102 104.598 12.642 104.741 12.5511C104.889 12.4564 104.963 12.3106 104.963 12.1136V12.0795C104.963 11.6515 104.836 11.3201 104.582 11.0852C104.329 10.8504 103.963 10.733 103.486 10.733C102.982 10.733 102.582 10.8428 102.287 11.0625C101.995 11.2822 101.798 11.5417 101.696 11.8409L99.7756 11.5682C99.9271 11.0379 100.177 10.5947 100.526 10.2386C100.874 9.87879 101.3 9.60985 101.804 9.43182C102.308 9.25 102.865 9.15909 103.474 9.15909C103.895 9.15909 104.313 9.20833 104.73 9.30682C105.147 9.4053 105.527 9.56818 105.872 9.79545C106.217 10.0189 106.493 10.3239 106.702 10.7102C106.914 11.0966 107.02 11.5795 107.02 12.1591V18H105.043V16.8011H104.974C104.849 17.0436 104.673 17.2708 104.446 17.483C104.223 17.6913 103.94 17.8598 103.599 17.9886C103.262 18.1136 102.866 18.1761 102.412 18.1761ZM102.946 16.6648C103.359 16.6648 103.717 16.5833 104.02 16.4205C104.323 16.2538 104.556 16.0341 104.719 15.7614C104.885 15.4886 104.969 15.1913 104.969 14.8693V13.8409C104.904 13.8939 104.795 13.9432 104.639 13.9886C104.488 14.0341 104.317 14.0739 104.128 14.108C103.938 14.142 103.751 14.1723 103.565 14.1989C103.38 14.2254 103.219 14.2481 103.082 14.267C102.776 14.3087 102.501 14.3769 102.259 14.4716C102.016 14.5663 101.825 14.6989 101.685 14.8693C101.545 15.036 101.474 15.2519 101.474 15.517C101.474 15.8958 101.613 16.1818 101.889 16.375C102.166 16.5682 102.518 16.6648 102.946 16.6648ZM109.288 21.2727V9.27273H111.311V10.7159H111.43C111.536 10.5038 111.686 10.2784 111.879 10.0398C112.072 9.79735 112.334 9.59091 112.663 9.42045C112.993 9.24621 113.413 9.15909 113.924 9.15909C114.599 9.15909 115.207 9.33144 115.748 9.67614C116.294 10.017 116.726 10.5227 117.044 11.1932C117.366 11.8598 117.527 12.678 117.527 13.6477C117.527 14.6061 117.37 15.4205 117.055 16.0909C116.741 16.7614 116.313 17.2727 115.771 17.625C115.229 17.9773 114.616 18.1534 113.93 18.1534C113.43 18.1534 113.015 18.0701 112.686 17.9034C112.356 17.7367 112.091 17.536 111.89 17.3011C111.693 17.0625 111.54 16.8371 111.43 16.625H111.345V21.2727H109.288ZM111.305 13.6364C111.305 14.2008 111.385 14.6951 111.544 15.1193C111.707 15.5436 111.94 15.875 112.243 16.1136C112.549 16.3485 112.921 16.4659 113.356 16.4659C113.811 16.4659 114.191 16.3447 114.498 16.1023C114.805 15.8561 115.036 15.5208 115.191 15.0966C115.351 14.6686 115.43 14.1818 115.43 13.6364C115.43 13.0947 115.352 12.6136 115.197 12.1932C115.042 11.7727 114.811 11.4432 114.504 11.2045C114.197 10.9659 113.815 10.8466 113.356 10.8466C112.917 10.8466 112.544 10.9621 112.237 11.1932C111.93 11.4242 111.697 11.7481 111.538 12.1648C111.383 12.5814 111.305 13.072 111.305 13.6364ZM119.488 21.2727V9.27273H121.511V10.7159H121.63C121.736 10.5038 121.886 10.2784 122.079 10.0398C122.272 9.79735 122.534 9.59091 122.863 9.42045C123.193 9.24621 123.613 9.15909 124.124 9.15909C124.799 9.15909 125.407 9.33144 125.948 9.67614C126.494 10.017 126.926 10.5227 127.244 11.1932C127.566 11.8598 127.727 12.678 127.727 13.6477C127.727 14.6061 127.57 15.4205 127.255 16.0909C126.941 16.7614 126.513 17.2727 125.971 17.625C125.429 17.9773 124.816 18.1534 124.13 18.1534C123.63 18.1534 123.215 18.0701 122.886 17.9034C122.556 17.7367 122.291 17.536 122.09 17.3011C121.893 17.0625 121.74 16.8371 121.63 16.625H121.545V21.2727H119.488ZM121.505 13.6364C121.505 14.2008 121.585 14.6951 121.744 15.1193C121.907 15.5436 122.14 15.875 122.443 16.1136C122.749 16.3485 123.121 16.4659 123.556 16.4659C124.011 16.4659 124.391 16.3447 124.698 16.1023C125.005 15.8561 125.236 15.5208 125.391 15.0966C125.551 14.6686 125.63 14.1818 125.63 13.6364C125.63 13.0947 125.552 12.6136 125.397 12.1932C125.242 11.7727 125.011 11.4432 124.704 11.2045C124.397 10.9659 124.015 10.8466 123.556 10.8466C123.117 10.8466 122.744 10.9621 122.437 11.1932C122.13 11.4242 121.897 11.7481 121.738 12.1648C121.583 12.5814 121.505 13.072 121.505 13.6364ZM130.955 18.125C130.61 18.125 130.315 18.0038 130.069 17.7614C129.823 17.5189 129.701 17.2235 129.705 16.875C129.701 16.5341 129.823 16.2424 130.069 16C130.315 15.7576 130.61 15.6364 130.955 15.6364C131.288 15.6364 131.578 15.7576 131.824 16C132.074 16.2424 132.201 16.5341 132.205 16.875C132.201 17.1061 132.141 17.3163 132.023 17.5057C131.91 17.6951 131.758 17.8466 131.569 17.9602C131.383 18.0701 131.179 18.125 130.955 18.125ZM130.955 11.8977C130.61 11.8977 130.315 11.7765 130.069 11.5341C129.823 11.2879 129.701 10.9924 129.705 10.6477C129.701 10.3068 129.823 10.0152 130.069 9.77273C130.315 9.52652 130.61 9.40341 130.955 9.40341C131.288 9.40341 131.578 9.52652 131.824 9.77273C132.074 10.0152 132.201 10.3068 132.205 10.6477C132.201 10.875 132.141 11.0833 132.023 11.2727C131.91 11.4621 131.758 11.6136 131.569 11.7273C131.383 11.8409 131.179 11.8977 130.955 11.8977Z" fill="black"/>
</svg>
